<?xml version="1.0" standalone="no"?>
<!DOCTYPE svg PUBLIC "-//W3C//DTD SVG 20010904//EN"
 "http://www.w3.org/TR/2001/REC-SVG-20010904/DTD/svg10.dtd">
<svg version="1.0" xmlns="http://www.w3.org/2000/svg"
 width="360.000000pt" height="750.000000pt" viewBox="0 0 360.000000 750.000000"
 preserveAspectRatio="xMidYMid meet">

<g transform="translate(0.000000,750.000000) scale(0.100000,-0.100000)"
fill="#000000" stroke="none">
<path d="M2364 7479 c-10 -12 -98 -80 -194 -152 -96 -72 -200 -150 -230 -174
-87 -70 -209 -194 -237 -241 l-26 -43 -39 38 c-83 80 -168 222 -233 391 -16
40 -32 69 -36 65 -17 -17 -132 -343 -155 -438 -25 -105 -32 -242 -15 -303 11
-39 13 -38 -114 -16 -75 12 -211 49 -264 71 -17 7 -10 -24 41 -187 48 -149 93
-251 149 -332 38 -56 39 -61 22 -74 -31 -23 -106 -44 -193 -54 -45 -5 -85 -12
-88 -15 -3 -3 33 -45 81 -93 85 -85 101 -107 73 -96 -21 8 -83 -22 -101 -49
-8 -13 -19 -44 -23 -68 -8 -44 -8 -44 -45 -41 l-37 4 0 -59 c0 -55 2 -59 35
-82 30 -20 35 -29 35 -62 0 -114 80 -178 221 -179 l77 0 12 -82 c6 -46 19
-119 29 -164 l18 -81 -33 -31 c-39 -37 -52 -89 -34 -131 17 -41 42 -61 101
-81 48 -17 53 -22 78 -76 70 -157 125 -231 216 -294 43 -29 137 -65 198 -75
l37 -6 0 -68 c0 -74 -5 -81 -60 -81 -54 0 -257 -39 -315 -61 -79 -29 -145 -93
-186 -177 -31 -66 -33 -68 -140 -130 -60 -35 -109 -68 -109 -73 0 -5 27 -22
61 -39 33 -17 59 -35 57 -40 -20 -59 -255 -569 -262 -570 -5 0 -7 120 -3 295
l6 295 -50 0 -49 0 0 110 c0 104 -1 110 -20 110 -36 0 -46 42 -25 108 13 38
20 98 23 183 l4 126 41 20 40 19 31 -60 c67 -132 119 -53 85 130 -15 81 -36
122 -72 141 -17 9 -40 26 -50 39 -10 13 -24 24 -31 24 -7 0 -21 9 -32 21 -23
25 -67 49 -90 49 -10 0 -29 13 -43 30 -36 41 -104 58 -161 41 -56 -17 -130
-87 -185 -175 -60 -97 -63 -124 -30 -238 30 -101 120 -340 154 -406 18 -35 21
-59 21 -161 0 -100 -2 -120 -16 -123 -17 -3 -15 53 -29 -788 -6 -339 -5 -514
4 -610 22 -256 73 -502 124 -595 26 -48 75 -75 135 -75 115 0 190 85 261 295
l30 90 83 5 c46 3 89 9 95 13 32 20 2 53 -70 76 -30 10 -37 17 -32 30 4 9 10
24 12 34 6 18 17 22 98 32 27 4 78 17 112 30 l63 23 0 -23 c0 -64 -144 -1545
-195 -2010 -14 -124 -13 -147 2 -131 10 10 167 1562 205 2024 6 83 16 152 20
152 4 0 8 -11 8 -24 0 -22 7 -25 78 -41 42 -9 81 -17 87 -19 5 -1 8 -19 7 -39
-3 -28 0 -37 12 -37 22 0 21 -18 -14 -525 -45 -638 -73 -971 -110 -1288 -27
-231 -34 -207 58 -207 l77 0 -11 192 c-19 321 -38 747 -33 751 2 2 108 1 234
-3 127 -4 310 -6 408 -5 174 3 177 3 182 -18 8 -37 115 -871 115 -894 0 -14 6
-23 15 -23 12 0 14 8 10 38 -54 366 -168 1295 -190 1537 -8 94 -17 196 -21
229 -4 46 -2 58 8 54 7 -3 144 -33 305 -68 l292 -64 5 -45 c3 -25 17 -158 32
-296 46 -449 153 -1377 158 -1383 3 -3 8 -3 11 0 3 3 -24 263 -60 579 -35 316
-76 684 -90 819 -14 135 -27 262 -30 283 -3 23 -1 37 6 37 6 0 137 -27 291
-60 153 -33 297 -60 319 -60 94 0 134 52 132 175 -2 145 -79 530 -179 887
-106 381 -323 983 -401 1111 -68 112 -158 200 -269 263 -69 38 -259 103 -380
129 l-82 17 -21 72 c-39 131 -40 125 29 178 l60 48 107 -34 c144 -45 244 -60
350 -53 47 3 88 9 91 11 10 11 -53 93 -140 182 -88 91 -89 91 -61 98 15 3 93
19 172 35 79 17 145 32 148 34 2 3 -20 22 -49 42 -67 48 -158 125 -158 134 0
4 21 15 48 24 80 30 237 118 363 206 143 100 148 81 -53 191 -135 74 -238 141
-271 178 -17 19 -17 20 14 46 45 38 184 118 402 231 104 54 185 101 180 105
-4 5 -139 61 -300 125 l-291 116 34 58 c19 32 59 125 89 207 68 182 92 236
128 286 15 21 27 41 27 44 0 19 -472 -18 -598 -47 -25 -5 -47 -8 -49 -6 -2 3
-6 58 -8 123 -16 427 -28 661 -34 672 -5 10 -12 7 -27 -9z m35 -513 c6 -159
12 -291 15 -293 2 -3 62 5 133 16 134 22 478 49 488 39 4 -3 -5 -24 -19 -45
-14 -21 -55 -115 -90 -209 -62 -166 -94 -237 -136 -300 l-21 -32 296 -118
c162 -65 294 -119 292 -120 -1 -1 -90 -48 -197 -104 -236 -124 -314 -169 -369
-217 l-42 -36 28 -29 c40 -43 148 -114 301 -197 l133 -73 -78 -56 c-121 -88
-272 -175 -364 -212 -46 -18 -88 -36 -92 -40 -8 -7 79 -88 162 -150 l33 -26
-155 -33 c-86 -19 -161 -38 -168 -42 -10 -6 17 -39 92 -116 58 -60 111 -118
117 -130 10 -18 8 -22 -11 -27 -35 -9 -148 -7 -213 5 -55 9 -195 49 -250 69
l-24 10 37 57 c41 64 95 207 113 300 12 61 12 61 52 67 109 18 188 101 188
198 -1 24 -7 54 -15 68 -9 16 -14 54 -15 103 0 43 -5 88 -11 100 -7 12 -41 57
-77 101 l-66 79 -8 131 c-14 251 -59 485 -114 602 -37 79 -138 179 -229 226
-158 82 -366 116 -515 84 -209 -45 -361 -179 -442 -392 -30 -79 -34 -85 -56
-79 -13 3 -30 1 -37 -5 -15 -12 -44 28 -100 140 -35 69 -106 269 -120 337 l-6
32 58 -20 c63 -21 323 -72 331 -65 2 3 -1 25 -7 50 -34 138 -2 311 115 614
l36 93 47 -108 c58 -136 104 -211 176 -291 80 -88 90 -92 114 -43 48 92 156
194 411 384 96 72 193 146 215 164 l40 34 7 -103 c4 -57 12 -233 17 -392z
m-471 -387 c180 -45 336 -156 395 -281 53 -112 98 -346 113 -583 l7 -110 -42
48 c-35 39 -49 47 -77 47 -24 0 -34 5 -34 15 0 9 -9 34 -21 56 -22 45 -80 78
-136 79 -25 0 -36 7 -52 34 -29 46 -83 86 -153 111 l-58 21 90 44 c50 25 100
54 111 66 29 31 22 76 -13 88 -23 8 -43 1 -135 -46 -205 -106 -360 -136 -543
-108 -78 13 -230 60 -230 72 0 26 67 176 101 227 140 210 393 292 677 220z
m126 -385 c21 -8 20 -37 -1 -56 -32 -28 -222 -118 -316 -150 -77 -26 -112 -32
-212 -35 -136 -6 -209 7 -330 58 -87 36 -125 63 -125 89 0 31 13 31 86 1 133
-54 197 -66 354 -65 136 0 151 2 240 32 52 18 136 54 185 81 100 54 97 53 119
45z m-994 -133 c0 -5 9 -13 20 -16 26 -8 25 -31 -2 -53 -46 -36 -79 -78 -94
-119 -9 -24 -20 -43 -23 -43 -4 0 -46 40 -94 88 l-89 89 82 6 c56 4 98 14 133
31 59 28 67 30 67 17z m316 -166 c23 -25 47 -58 52 -75 l11 -30 -52 0 c-29 0
-86 6 -127 14 -41 8 -119 17 -172 21 -54 4 -98 9 -98 11 0 3 9 21 19 42 26 49
71 91 116 106 33 12 45 10 123 -16 72 -24 94 -37 128 -73z m582 66 c42 -21
112 -84 112 -100 0 -5 -38 -6 -84 -4 -113 8 -291 -12 -384 -43 -41 -13 -77
-22 -79 -20 -17 16 87 146 117 146 8 0 49 11 90 25 90 29 166 28 228 -4z
m-408 -68 c-16 -17 -34 -48 -41 -67 -16 -43 -45 -49 -55 -10 -4 14 -21 45 -39
69 l-33 43 98 -1 98 -2 -28 -32z m659 -90 c51 -37 66 -86 66 -213 0 -108 -2
-119 -30 -175 -34 -66 -65 -88 -154 -105 -127 -24 -337 -2 -414 44 -63 36
-121 105 -146 170 -24 64 -28 166 -8 205 39 78 235 114 531 100 104 -6 133
-10 155 -26z m-929 -25 c66 -20 85 -59 84 -168 -3 -191 -59 -265 -221 -289
-124 -19 -222 -14 -267 12 -75 42 -81 60 -81 220 0 156 4 180 36 222 l22 28
191 -6 c120 -3 208 -10 236 -19z m226 -30 c-7 -13 -17 -39 -20 -58 -6 -34 -8
-35 -51 -35 -41 0 -45 2 -51 30 -3 16 -13 42 -20 58 l-15 27 86 0 85 0 -14
-22z m844 -119 c0 -39 -5 -44 -34 -33 -11 4 -16 19 -16 44 0 34 2 37 25 32 22
-4 25 -10 25 -43z m-1582 -7 c5 -36 -4 -51 -27 -45 -16 4 -21 13 -21 40 0 30
3 34 23 31 14 -2 23 -11 25 -26z m1814 -242 c21 -40 26 -142 6 -122 -6 6 -12
36 -12 66 -1 30 -4 53 -8 53 -3 -1 -49 48 -102 110 -69 79 -96 119 -96 138 0
22 16 7 97 -92 54 -65 105 -134 115 -153z m-1172 220 c-11 -22 -22 -40 -24
-40 -7 0 7 55 17 68 21 27 26 10 7 -28z m79 -21 c16 -75 53 -139 113 -195 80
-76 140 -96 311 -102 270 -9 351 36 379 211 12 77 13 77 43 76 23 0 39 -11 68
-45 35 -43 37 -48 37 -120 0 -72 -1 -74 -25 -74 -43 0 -27 -16 29 -29 77 -17
139 -60 165 -113 25 -53 26 -76 6 -125 -32 -76 -96 -116 -187 -117 -58 -1 -71
-8 -43 -24 14 -7 14 -15 0 -76 -56 -241 -159 -392 -324 -476 -249 -125 -517
-100 -673 63 -54 57 -161 258 -140 265 7 2 12 10 12 18 0 9 -12 14 -37 14 -48
0 -115 31 -137 61 -35 50 -8 115 68 163 44 28 56 57 15 35 -12 -6 -22 -9 -24
-7 -5 4 -55 273 -55 293 0 8 19 16 53 20 62 8 132 37 165 68 26 24 56 78 65
118 4 14 22 52 42 84 19 33 35 62 35 67 0 4 6 5 14 2 8 -3 19 -28 25 -55z
m1025 -187 c40 -49 52 -111 19 -97 -10 4 -31 12 -46 17 -19 7 -26 15 -23 25 3
8 6 35 6 60 0 26 2 44 4 42 2 -2 20 -24 40 -47z m-2071 -705 c18 -8 37 -20 44
-28 10 -12 4 -18 -37 -32 -53 -19 -137 -89 -171 -143 -24 -40 -16 -62 10 -24
66 100 169 166 247 157 24 -2 54 -13 64 -22 19 -17 17 -19 -68 -61 -87 -42
-173 -106 -160 -119 3 -4 30 11 60 33 64 49 173 102 209 102 15 0 32 -6 38
-13 8 -11 0 -18 -40 -36 -50 -23 -191 -124 -197 -141 -8 -21 22 -8 81 38 82
64 106 78 154 92 71 21 101 -12 122 -131 14 -81 14 -139 1 -159 -9 -13 -13
-11 -29 9 -10 13 -26 45 -35 72 -10 27 -19 49 -21 49 -2 0 -23 -11 -46 -25
l-44 -25 -5 22 c-3 12 -10 23 -15 25 -6 2 -10 -57 -10 -155 0 -171 -10 -222
-50 -270 -31 -36 -31 -42 -4 -39 12 1 23 -2 25 -8 3 -6 -40 -8 -123 -5 l-126
5 -49 114 c-58 134 -120 313 -138 393 -13 57 -13 59 20 123 38 75 131 182 175
201 39 17 78 17 118 1z m1693 -417 c13 -51 23 -94 22 -95 -11 -8 -139 -55
-152 -55 -21 0 -23 -5 -107 -247 -96 -276 -102 -278 -118 -40 -18 275 -19 276
-47 283 -23 6 -24 10 -24 80 l0 74 58 0 c72 0 196 31 277 69 33 15 61 27 63
26 1 -1 14 -44 28 -95z m235 -156 c212 -60 297 -103 398 -198 122 -116 167
-204 333 -661 84 -229 174 -520 233 -750 78 -305 153 -718 140 -774 -18 -79
-52 -111 -115 -111 -42 0 -1806 381 -1931 418 l-26 7 28 199 c16 109 30 200
32 202 5 5 543 -103 752 -151 88 -20 380 -90 648 -156 429 -107 534 -128 490
-101 -6 4 -92 27 -190 51 -98 24 -181 46 -185 50 -4 3 -19 76 -33 161 -54 319
-129 602 -248 935 -72 199 -102 271 -119 281 -16 10 -5 -27 38 -131 l38 -90 8
-345 c4 -190 12 -433 17 -540 5 -107 8 -196 6 -198 -1 -1 -135 29 -298 68
-163 38 -297 70 -299 70 -5 0 9 582 22 865 12 298 34 610 55 803 8 74 15 136
15 138 0 8 71 -7 191 -42z m-235 -136 c-33 -324 -52 -690 -72 -1391 -6 -227
-6 -229 -28 -225 -11 3 -143 28 -292 58 l-271 53 4 41 c2 23 12 147 23 276 23
259 73 719 95 875 38 257 69 431 78 436 5 4 23 2 38 -3 24 -8 29 -16 29 -41 1
-83 31 -402 39 -410 5 -5 21 -7 37 -5 28 3 31 10 104 218 42 119 79 221 84
228 4 7 15 12 24 12 9 0 40 11 67 24 28 12 51 19 53 15 2 -4 -4 -77 -12 -161z
m-500 100 c-13 -48 -76 -482 -100 -684 -14 -116 -37 -339 -51 -495 -31 -345
-41 -449 -47 -454 -2 -3 -44 1 -93 7 -69 10 -90 9 -93 0 -2 -7 -11 -12 -19
-12 -14 0 -15 15 -8 123 4 67 11 188 14 269 l6 147 54 -64 c50 -61 71 -77 71
-56 0 5 -47 64 -104 132 l-105 122 116 169 c63 93 111 173 107 177 -5 4 -49
25 -99 46 -160 67 -366 168 -362 178 4 14 382 228 491 278 53 24 96 49 96 56
0 7 -3 13 -6 13 -4 0 -89 -42 -190 -94 l-184 -94 21 39 c29 59 86 117 140 144
52 27 236 68 328 74 20 1 22 -3 17 -21z m-1016 -358 l0 -100 -92 0 c-51 -1
-119 -3 -150 -7 l-58 -5 0 106 0 106 150 0 150 0 0 -100z m94 -803 c0 -412 -5
-735 -12 -817 -16 -193 -19 -329 -7 -330 6 0 11 38 13 91 l3 90 32 -6 c18 -4
35 -9 39 -11 4 -3 -6 -41 -21 -87 -69 -203 -140 -287 -244 -287 -77 0 -107 29
-144 140 -95 285 -118 641 -93 1457 l13 432 131 4 c72 1 167 4 211 5 l80 2 -1
-683z m511 457 l0 -129 -43 -62 c-32 -47 -41 -69 -36 -87 3 -14 -7 -72 -25
-137 -33 -124 -130 -441 -137 -448 -4 -4 -189 25 -226 35 -16 5 -18 24 -18
216 l0 211 141 313 141 312 102 -48 101 -47 0 -129z m82 -4 l-52 -78 -3 36
c-2 20 -1 65 3 99 l6 61 49 -20 49 -20 -52 -78z m1432 -322 c51 -158 105 -355
140 -514 23 -103 72 -386 68 -390 -4 -4 -227 53 -233 59 -12 11 -42 997 -31
997 3 0 28 -69 56 -152z m-1519 -122 c0 -86 -20 -468 -25 -474 -6 -7 -185 43
-185 52 0 5 24 88 54 185 51 167 70 229 96 330 l11 43 25 -23 c22 -21 24 -30
24 -113z m-100 -480 l115 -31 -1 -53 c-3 -110 -14 -162 -34 -162 -9 0 -42 -11
-71 -25 -62 -28 -209 -55 -256 -48 -37 6 -46 -12 -12 -22 13 -4 18 -12 15 -22
-18 -46 -18 -63 0 -69 11 -4 39 -15 64 -26 35 -15 41 -21 30 -28 -21 -14 -152
-12 -205 2 -44 12 -45 13 -45 53 0 40 41 140 80 195 11 16 20 34 20 40 0 21
-30 -10 -61 -65 l-29 -50 0 60 c1 37 6 67 15 79 18 24 20 50 3 43 -10 -3 -12
20 -10 103 l3 107 132 -25 c73 -14 184 -39 247 -56z m253 -21 c31 -4 57 -8 57
-9 0 -16 -41 -290 -44 -293 -8 -9 -146 29 -146 40 0 7 7 68 15 137 8 69 15
129 15 134 0 4 10 6 23 3 12 -3 48 -9 80 -12z m452 -503 l260 -59 18 -209 c9
-115 25 -278 35 -361 l18 -153 -29 0 -30 0 7 51 c9 67 -15 63 -28 -4 l-8 -47
-244 0 -244 0 -5 28 c-12 59 -36 132 -46 138 -20 12 -20 -4 1 -65 29 -87 27
-101 -13 -101 -31 0 -34 3 -43 42 -5 23 -15 44 -23 46 -10 3 -11 -3 -6 -29 4
-19 8 -38 9 -44 1 -7 -63 -9 -71 -1 -2 2 42 657 52 782 l6 72 62 -14 c34 -8
179 -40 322 -72z m85 -887 l0 -75 -115 0 -115 0 0 75 0 75 115 0 115 0 0 -75z
m-550 -665 c6 -113 13 -240 16 -282 l7 -78 -58 0 c-56 0 -57 0 -51 28 5 24 40
333 63 557 7 70 8 74 10 30 1 -27 7 -142 13 -255z"/>
<path d="M2460 5511 c44 -55 88 -105 97 -113 9 -7 -25 38 -76 100 -51 61 -95
112 -98 112 -2 0 32 -45 77 -99z"/>
<path d="M2582 5330 c0 -14 2 -19 5 -12 2 6 2 18 0 25 -3 6 -5 1 -5 -13z"/>
<path d="M1381 5444 c-25 -32 -49 -112 -51 -169 -4 -109 0 -136 25 -161 24
-24 26 -24 55 -9 49 25 159 195 127 195 -7 0 -21 -17 -31 -37 -28 -59 -85
-131 -108 -139 -39 -12 -50 19 -45 128 3 79 9 106 31 153 31 63 30 80 -3 39z"/>
<path d="M2005 5031 c-3 -5 14 -20 37 -33 23 -13 53 -38 65 -57 46 -68 21
-123 -72 -162 -52 -21 -71 -39 -42 -39 27 0 115 49 135 75 38 48 25 122 -30
171 -32 30 -86 56 -93 45z"/>
<path d="M2016 4923 c-4 -5 -173 -11 -374 -15 -278 -5 -384 -10 -436 -22 -38
-9 -71 -18 -74 -21 -15 -15 14 -14 89 1 62 12 146 17 322 19 130 2 237 1 237
-1 0 -2 -63 -99 -141 -215 -211 -317 -205 -317 76 -10 116 126 218 230 227
230 38 2 118 23 118 32 0 11 -34 12 -44 2z m-126 -39 c0 -5 -204 -229 -268
-294 -13 -14 22 46 79 132 109 164 101 157 177 166 6 1 12 -1 12 -4z"/>
<path d="M2192 4041 c2 -5 72 -44 156 -86 137 -68 337 -192 417 -259 l30 -25
-135 -64 c-74 -36 -180 -81 -235 -101 -144 -53 -147 -54 -138 -69 4 -6 51 -83
105 -170 54 -87 98 -161 98 -165 0 -3 -68 -74 -152 -159 -83 -84 -148 -156
-145 -160 12 -11 328 310 322 326 -3 8 -49 84 -102 169 -52 84 -91 157 -87
161 5 4 50 23 99 41 94 34 301 128 367 165 l39 22 -48 43 c-96 85 -323 223
-497 304 -81 37 -100 43 -94 27z"/>
<path d="M1730 560 c0 -5 14 -10 30 -10 l30 0 0 -275 c0 -213 3 -275 13 -275
13 0 13 2 16 338 l1 212 139 0 139 0 4 -72 c2 -40 5 -147 7 -238 2 -193 9
-255 26 -238 3 3 2 131 -2 284 l-8 279 -197 3 c-130 1 -198 -1 -198 -8z"/>
</g>
</svg>
