<?xml version="1.0" standalone="no"?>
<!DOCTYPE svg PUBLIC "-//W3C//DTD SVG 20010904//EN"
 "http://www.w3.org/TR/2001/REC-SVG-20010904/DTD/svg10.dtd">
<svg version="1.0" xmlns="http://www.w3.org/2000/svg"
 width="900.000000pt" height="900.000000pt" viewBox="0 0 900.000000 900.000000"
 preserveAspectRatio="xMidYMid meet">

<g transform="translate(0.000000,900.000000) scale(0.100000,-0.100000)"
fill="#000000" stroke="none">
<path d="M4280 8647 c0 -2 11 -54 25 -115 20 -92 25 -151 31 -347 l7 -235
-129 5 c-349 13 -404 14 -404 7 1 -19 84 -157 129 -214 28 -34 80 -102 116
-150 73 -98 74 -89 -24 -127 -28 -12 -105 -32 -171 -46 -66 -13 -135 -32 -152
-41 -30 -16 -31 -18 -14 -28 53 -31 205 -142 236 -171 19 -19 61 -47 92 -63
l57 -29 -38 -37 -39 -38 -133 101 c-74 56 -179 138 -234 182 -55 45 -158 126
-230 180 -71 55 -161 124 -200 154 -104 82 -303 215 -355 237 -58 25 -145 27
-188 4 -38 -20 -72 -70 -72 -107 0 -93 199 -492 373 -748 33 -48 91 -80 147
-81 42 0 83 -44 94 -102 6 -34 4 -38 -23 -52 -50 -27 -190 -136 -216 -170 -13
-18 -35 -57 -49 -87 -13 -29 -33 -62 -44 -73 -44 -39 -62 -129 -65 -313 l-2
-170 45 -89 c25 -49 59 -109 76 -134 24 -35 30 -53 26 -81 -7 -59 20 -107 74
-130 l46 -21 -38 -40 c-22 -22 -133 -127 -249 -233 -115 -106 -241 -225 -279
-263 -60 -61 -68 -74 -62 -97 6 -23 -6 -38 -111 -143 -215 -214 -703 -692
-708 -692 -2 0 -28 25 -57 56 -66 70 -129 108 -163 100 -14 -4 -25 -11 -25
-16 0 -6 25 -38 56 -71 31 -33 53 -63 51 -66 -3 -2 -22 0 -44 6 -65 18 -167
14 -194 -8 -16 -13 -20 -23 -14 -28 6 -5 55 -20 110 -32 55 -13 107 -27 115
-32 17 -9 24 -5 -70 -35 -112 -34 -178 -78 -166 -109 8 -21 39 -19 158 10 57
14 109 25 117 25 8 0 -22 -38 -67 -84 -94 -95 -108 -133 -47 -123 33 5 69 27
195 117 30 22 62 40 71 40 9 0 53 -22 99 -50 46 -27 91 -50 101 -50 14 0 29
18 29 36 0 2 -29 40 -65 84 -36 44 -65 85 -65 89 0 5 18 24 39 43 21 18 130
116 241 218 174 158 293 266 503 452 l42 37 70 -25 70 -25 30 33 c16 19 47 54
67 78 l37 45 -58 -135 c-33 -74 -77 -173 -99 -220 -22 -47 -59 -128 -82 -180
-23 -52 -100 -213 -171 -356 -117 -240 -127 -264 -117 -290 9 -26 5 -40 -34
-119 -25 -50 -62 -128 -83 -175 -32 -73 -83 -184 -180 -395 -13 -27 -72 -151
-131 -275 -100 -211 -166 -355 -319 -695 -34 -77 -81 -180 -104 -230 -32 -69
-41 -97 -36 -122 7 -40 -37 -117 -78 -134 -46 -19 -167 -185 -167 -229 0 -72
173 -315 254 -357 42 -22 234 -30 259 -11 26 20 13 61 -36 111 -42 45 -74 125
-103 259 -7 38 -20 83 -28 102 -13 32 -12 37 15 84 l29 51 49 -6 48 -5 41 73
c22 41 135 259 250 484 115 226 270 524 346 664 75 139 164 307 197 372 56
112 61 119 89 119 17 0 30 -4 30 -9 0 -10 -104 -234 -213 -461 -180 -374 -221
-461 -252 -535 -18 -44 -52 -120 -75 -170 -111 -238 -200 -450 -195 -466 7
-23 -31 -99 -49 -99 -29 0 -136 -145 -136 -185 0 -20 235 -262 290 -299 33
-22 221 -23 240 -1 19 23 8 47 -40 83 -38 29 -52 50 -90 136 -25 56 -58 123
-73 149 l-29 46 23 41 c21 38 24 39 60 34 36 -6 37 -5 72 54 19 32 55 102 80
153 228 472 506 1022 709 1399 l83 155 43 -3 c90 -7 96 -2 142 116 59 149 158
427 247 690 42 122 77 221 79 219 2 -1 -6 -174 -16 -382 -11 -209 -20 -415
-20 -458 0 -65 -3 -78 -17 -83 -52 -15 -109 -52 -121 -77 -12 -26 -11 -33 10
-74 34 -67 87 -107 145 -107 28 -1 48 4 50 11 3 7 -16 34 -41 61 -25 27 -46
52 -46 56 0 13 47 6 83 -13 71 -36 138 -96 174 -154 27 -45 40 -57 57 -55 19
3 21 9 21 58 0 30 -8 69 -17 87 l-16 32 24 -16 c13 -8 24 -19 24 -24 0 -12 80
-69 97 -69 29 0 24 40 -15 112 -2 3 19 -2 47 -12 42 -17 51 -17 61 -5 14 17
-5 46 -59 89 l-36 29 29 -6 c17 -3 36 -3 43 0 21 8 15 39 -9 55 -34 22 -148
58 -205 65 -28 3 -56 9 -62 13 -20 12 9 470 59 955 17 160 18 163 51 170 l29
7 -1 106 c0 59 -4 172 -8 252 -4 80 -6 146 -5 148 1 2 29 -3 62 -12 35 -9 106
-42 170 -81 l111 -66 3 -61 3 -62 210 -93 c115 -52 212 -99 216 -105 4 -6 14
-49 24 -97 23 -116 112 -484 131 -543 l16 -48 -84 -91 c-46 -51 -139 -151
-208 -223 -294 -309 -470 -515 -661 -771 -172 -232 -167 -267 70 -505 151
-150 265 -251 480 -428 69 -57 164 -138 210 -180 97 -88 349 -292 362 -292 4
0 19 5 33 11 21 10 31 8 70 -17 31 -20 42 -32 35 -40 -5 -6 -53 -37 -107 -69
-53 -32 -133 -81 -177 -110 -44 -29 -108 -69 -142 -89 -116 -69 -155 -128
-102 -157 44 -23 860 5 909 31 22 12 23 16 17 119 -4 84 -12 127 -38 206 -30
88 -38 102 -66 116 -18 9 -62 40 -97 70 -35 30 -83 69 -105 87 -23 18 -41 41
-41 51 0 27 -185 199 -446 415 -73 61 -624 576 -624 583 0 4 84 101 231 268
15 17 59 68 99 114 39 46 162 183 273 303 l202 219 13 -48 c26 -97 197 -582
252 -718 77 -188 220 -485 234 -485 6 1 27 23 46 51 36 52 126 126 193 161 72
36 183 58 297 58 59 0 120 -5 136 -10 25 -9 84 -82 84 -104 0 -4 65 -121 144
-259 79 -139 175 -308 213 -377 39 -69 94 -165 123 -215 28 -49 67 -120 86
-157 44 -87 154 -271 168 -280 6 -4 27 -8 46 -8 31 0 38 -5 64 -47 26 -44 28
-51 18 -89 -18 -67 -35 -305 -25 -344 8 -31 18 -40 93 -77 93 -47 231 -81 436
-108 213 -28 294 -17 294 40 0 36 -111 165 -292 338 -178 169 -234 216 -259
217 -17 0 -29 15 -85 108 -25 41 -31 59 -24 76 6 17 -9 49 -77 161 -46 77
-109 185 -140 240 -31 55 -75 132 -98 170 -67 111 -305 564 -305 579 0 3 53
-19 118 -48 229 -104 353 -135 594 -151 69 -5 107 -4 112 3 3 5 -38 39 -92 75
-210 141 -361 286 -576 554 -247 307 -445 671 -646 1188 -34 88 -95 239 -135
335 -106 252 -205 538 -269 772 -31 112 -65 234 -75 271 -19 66 -19 76 -6 285
16 241 10 371 -25 507 -27 107 -102 243 -179 327 -62 67 -64 70 -55 106 8 32
14 38 54 49 75 22 72 18 54 64 -20 48 -12 59 48 59 20 0 49 5 65 11 l28 11
-35 26 c-88 68 -101 84 -94 124 4 22 13 40 23 43 9 3 41 21 71 40 29 19 75 42
102 51 26 8 48 19 48 23 0 5 -25 25 -56 45 -31 21 -63 51 -72 68 -10 17 -32
51 -50 75 l-33 44 32 40 c17 22 74 74 125 115 52 41 94 80 94 87 0 8 -26 21
-57 31 -44 14 -170 77 -201 101 -1 1 10 35 26 76 16 41 37 95 46 121 10 26 28
62 41 80 41 57 95 154 95 171 0 22 -12 21 -58 -2 -45 -22 -70 -28 -188 -41
-50 -5 -105 -13 -123 -16 -30 -6 -33 -5 -27 12 3 10 13 71 22 134 18 130 14
223 -15 303 -20 59 -66 137 -80 137 -5 0 -28 -33 -50 -72 -22 -40 -63 -106
-91 -146 -51 -73 -176 -212 -190 -212 -4 0 -33 31 -64 70 -31 38 -89 94 -129
124 -40 29 -85 68 -102 86 -16 17 -59 51 -95 74 -36 24 -87 62 -115 84 -44 37
-65 50 -65 39z m160 -138 c41 -28 98 -73 125 -100 28 -26 68 -61 91 -77 35
-26 97 -90 173 -182 l21 -25 66 70 c84 90 160 190 219 289 l48 78 24 -38 c32
-53 52 -127 55 -204 3 -70 -16 -232 -34 -293 -6 -20 -9 -40 -5 -43 3 -3 50 1
104 9 54 9 123 18 154 21 31 3 73 13 93 21 20 8 36 13 36 10 0 -12 -33 -69
-65 -114 -37 -52 -140 -311 -128 -322 15 -13 198 -106 222 -112 21 -5 23 -8
11 -22 -8 -9 -49 -44 -92 -77 -43 -33 -78 -63 -78 -67 0 -3 -14 -20 -30 -38
-17 -18 -30 -36 -30 -40 0 -5 13 -24 28 -43 16 -19 40 -56 54 -81 15 -25 46
-58 70 -74 l43 -29 -35 -14 c-19 -8 -46 -22 -60 -31 -14 -10 -42 -28 -62 -40
l-37 -22 -14 33 c-8 19 -25 41 -39 50 -21 14 -25 25 -27 77 -1 34 5 80 13 106
28 81 16 174 -32 243 -25 37 -81 278 -75 323 8 60 -19 82 -230 190 -73 38
-205 50 -309 28 -91 -19 -157 -57 -239 -138 -80 -79 -110 -129 -150 -246 -23
-66 -24 -83 -23 -285 0 -118 6 -242 11 -275 l11 -60 -34 -28 c-51 -43 -69
-132 -40 -202 16 -37 68 -75 104 -75 14 0 22 -6 22 -17 0 -15 43 -144 64 -194
6 -13 -3 -20 -38 -32 l-45 -16 -3 92 -3 92 -114 -4 c-95 -2 -113 -1 -108 11
21 55 57 183 57 202 0 27 -14 30 -182 42 -75 5 -98 10 -103 22 -4 11 27 47
105 122 100 96 131 140 98 140 -26 0 -114 49 -153 85 -22 20 -79 64 -128 98
-102 71 -107 64 72 103 100 22 240 71 264 94 4 4 -16 36 -46 71 -29 35 -74 93
-99 129 -26 36 -60 80 -75 98 -32 36 -90 138 -83 145 3 3 34 1 70 -4 36 -4
149 -9 252 -11 l187 -3 7 54 c10 79 -16 481 -35 556 -15 56 -14 59 12 41 12
-9 56 -39 97 -67z m515 -575 l40 -14 -40 4 c-148 13 -311 -66 -481 -232 -82
-80 -102 -120 -76 -152 23 -28 47 -19 143 57 234 184 243 188 399 188 110 0
118 -1 188 -34 40 -19 77 -42 82 -50 11 -21 61 -204 56 -208 -1 -2 -22 4 -46
12 -79 28 -172 14 -240 -36 -97 -72 -111 -292 -23 -371 75 -68 222 -77 310
-20 l48 32 4 -33 c6 -54 -20 -407 -36 -491 -20 -103 -43 -155 -94 -211 -64
-70 -147 -111 -259 -131 -248 -42 -413 54 -499 293 -57 156 -111 537 -111 781
0 181 15 262 65 361 52 103 184 220 283 252 70 22 228 24 287 3z m134 -62
c103 -40 153 -87 130 -123 -6 -11 -22 -7 -74 19 -120 59 -287 62 -397 6 -28
-14 -107 -70 -177 -125 -126 -99 -161 -116 -161 -80 0 26 39 71 136 155 92 80
172 131 248 158 69 25 217 20 295 -10z m-2258 -17 c48 -17 251 -151 364 -240
39 -31 120 -93 180 -139 183 -140 318 -246 355 -281 19 -17 80 -65 135 -105
55 -40 104 -76 110 -81 5 -6 -12 -29 -45 -61 l-54 -51 -15 24 c-9 13 -35 47
-58 76 -24 29 -43 63 -43 76 0 53 -54 79 -255 122 -71 15 -136 29 -143 31 -7
2 -20 21 -29 41 -16 41 -438 472 -449 460 -7 -7 278 -308 350 -369 l49 -42
-56 -13 c-123 -28 -215 -101 -247 -197 l-16 -48 -67 109 c-91 147 -230 423
-263 522 -24 72 -25 84 -14 112 27 64 116 87 211 54z m2366 -370 c100 -30 164
-143 143 -254 -12 -66 -39 -104 -98 -138 -40 -24 -58 -28 -119 -28 -64 1 -77
4 -114 30 -65 46 -82 76 -87 148 -8 132 43 213 158 248 39 11 62 10 117 -6z
m-1889 -234 l21 -29 -43 -11 c-24 -6 -67 -29 -96 -52 -28 -22 -53 -39 -54 -37
-1 1 -15 20 -31 41 -27 36 -27 38 -10 57 23 26 110 59 156 59 28 1 40 -5 57
-28z m210 -81 c153 -34 196 -51 212 -79 9 -17 8 -21 -6 -21 -11 0 2 -19 38
-58 99 -108 159 -253 159 -389 1 -138 -38 -146 -66 -13 -21 104 -52 196 -82
247 -26 44 -98 113 -118 113 -8 0 -10 -31 -7 -109 4 -102 3 -109 -17 -123 -44
-31 -86 1 -94 72 -5 50 -25 106 -33 97 -3 -3 0 -32 6 -66 6 -34 8 -77 4 -97
-7 -41 -43 -69 -74 -59 -28 9 -66 63 -74 105 l-7 35 26 -29 c31 -34 42 -29 22
11 -16 30 -100 113 -115 113 -5 0 -3 -33 4 -72 33 -196 35 -416 3 -454 -13
-16 -35 -18 -43 -5 -3 4 -8 84 -11 177 -7 245 -18 308 -63 362 -31 38 -36 51
-36 99 -1 54 0 56 51 103 84 77 132 83 321 40z m-428 -34 c27 -37 32 -54 34
-106 l1 -62 -43 5 c-60 7 -82 30 -82 84 0 24 5 54 11 66 11 21 39 57 45 57 1
0 17 -20 34 -44z m2287 -187 c27 -52 10 -144 -33 -180 -16 -13 -17 -10 -11 41
4 30 7 81 7 113 0 63 14 72 37 26z m-1665 -46 c14 -16 31 -39 38 -51 11 -22
10 -23 -12 -17 -65 21 -68 24 -68 60 0 42 8 44 42 8z m627 -73 c7 -47 15 -97
18 -112 5 -24 2 -28 -17 -28 -12 0 -35 14 -52 30 -29 29 -30 34 -26 95 3 51 9
70 28 90 13 14 27 22 30 18 4 -5 12 -46 19 -93z m-1001 17 c5 -24 -15 -21 -21
4 -3 13 -1 19 6 16 7 -2 13 -11 15 -20z m820 -52 c2 -2 -13 -53 -34 -114 -20
-62 -34 -115 -30 -118 3 -4 57 -8 119 -9 l112 -1 -3 -92 c-4 -104 -5 -104 80
-70 l53 21 30 -39 c16 -21 47 -54 68 -73 l38 -36 -65 -131 c-37 -73 -66 -140
-66 -150 0 -10 32 -60 70 -112 80 -106 79 -92 14 -223 -24 -48 -44 -96 -44
-107 0 -47 124 -535 154 -605 25 -60 31 -35 7 36 -11 35 -32 111 -45 169 -14
58 -30 119 -36 134 -6 16 -22 82 -36 148 l-26 119 57 120 57 119 -25 27 c-29
31 -127 167 -127 176 0 3 29 66 65 140 l65 134 41 -16 c37 -14 40 -18 35 -46
-3 -17 -10 -195 -16 -396 -12 -392 -2 -625 36 -882 10 -65 14 -121 10 -125 -4
-5 -33 6 -64 22 -55 30 -56 32 -79 105 -29 95 -90 454 -103 607 -14 159 -37
349 -55 458 -8 50 -15 131 -15 180 0 50 -5 97 -10 105 -7 11 -10 2 -10 -33 0
-27 -4 -47 -9 -45 -6 2 -66 56 -135 121 -94 89 -126 125 -131 150 -9 44 -74
152 -127 210 -27 31 -47 65 -55 94 l-12 46 122 -7 c67 -4 123 -9 125 -11z
m1262 -12 c0 -5 16 -19 36 -33 32 -21 34 -25 18 -31 -11 -4 -38 -8 -62 -8 -52
-1 -61 -17 -39 -72 8 -21 12 -39 7 -39 -4 0 -21 -3 -37 -6 l-30 -6 10 68 c8
56 16 74 41 100 30 30 56 42 56 27z m-1755 -203 c61 -10 138 -38 132 -49 -30
-59 -59 -135 -64 -171 -7 -57 6 -45 28 25 19 61 65 145 79 145 14 0 12 -12 -6
-38 -20 -29 -54 -129 -54 -159 0 -13 -11 -46 -25 -73 -45 -89 -29 -207 35
-265 13 -11 40 -44 62 -73 21 -29 56 -63 76 -76 44 -28 88 -44 78 -27 -4 6 -5
11 -2 11 2 0 11 3 20 6 13 5 16 -1 16 -30 0 -30 -4 -36 -21 -36 -27 0 -55 15
-111 62 -49 41 -65 40 -27 -1 35 -38 111 -81 141 -81 l28 0 0 -114 c0 -107 -2
-117 -24 -143 l-24 -28 -29 28 c-36 34 -76 35 -108 3 -23 -23 -24 -23 -41 -5
-29 32 -68 24 -107 -21 -19 -22 -37 -40 -40 -40 -16 0 -5 30 13 40 11 6 20 15
20 21 0 6 -7 6 -19 -1 -30 -15 -38 -13 -51 19 -8 21 -9 39 -1 67 16 59 12 74
-9 30 l-18 -39 -26 41 c-14 23 -26 44 -26 47 0 3 11 23 25 45 14 22 25 48 25
57 0 11 -13 -1 -30 -29 -17 -27 -35 -48 -41 -48 -6 0 -1 12 10 26 26 33 51
115 50 163 0 29 -2 32 -9 16 -4 -11 -13 -45 -19 -75 -11 -54 -44 -111 -56 -99
-3 4 5 23 19 43 16 24 27 57 30 94 4 31 12 77 18 102 21 74 17 169 -9 215 -12
22 -33 63 -47 92 -32 67 -83 116 -140 138 -49 19 -60 35 -23 35 26 0 57 -19
105 -63 44 -42 41 -17 -4 33 -21 23 -52 45 -75 52 -36 10 -39 14 -39 48 0 36
1 37 58 54 31 9 86 21 122 25 36 5 67 9 70 10 3 0 32 -3 65 -9z m314 -82 c17
-18 41 -57 53 -86 14 -34 27 -51 37 -50 20 4 86 -126 101 -197 13 -62 16 -260
5 -330 -7 -44 -9 -47 -17 -25 -5 13 -6 44 -3 69 4 39 4 43 -6 24 -7 -13 -16
-23 -21 -23 -5 0 -1 14 8 32 19 37 33 173 15 148 -6 -8 -11 -32 -11 -53 0 -21
-7 -53 -14 -72 -18 -41 -30 -48 -15 -8 6 16 12 50 14 78 3 27 9 65 14 82 22
74 -22 215 -76 244 -13 7 -26 24 -30 38 -9 41 -31 79 -70 122 -42 47 -27 53
16 7z m-21 -38 c12 -16 29 -44 37 -64 l15 -35 -31 9 c-33 10 -115 -2 -151 -21
-20 -11 -20 -9 -13 27 3 22 16 56 28 77 18 32 25 37 56 36 27 0 42 -7 59 -29z
m-738 -24 c0 -8 -15 -37 -34 -65 -39 -57 -61 -142 -50 -195 11 -61 21 -49 26
32 4 58 12 90 32 130 15 30 30 52 33 49 3 -3 -7 -30 -21 -59 -24 -50 -26 -65
-29 -203 l-2 -150 38 -67 c47 -82 116 -161 157 -178 38 -16 42 -45 4 -36 -41
11 -98 51 -142 101 -26 30 -42 42 -42 31 0 -41 116 -136 194 -157 28 -8 41
-21 67 -67 18 -31 63 -108 101 -169 l68 -113 -63 0 c-141 0 -334 87 -393 177
-16 25 -16 27 7 45 l24 19 -40 -7 c-98 -18 -150 3 -172 70 -16 47 6 108 48
133 33 20 37 33 11 33 -47 0 -45 296 3 432 27 78 50 114 114 181 47 49 61 57
61 33z m2109 -31 c99 -107 170 -255 197 -406 36 -208 -9 -792 -106 -1364 -57
-337 -93 -388 -240 -351 -34 9 -152 57 -263 107 -402 182 -543 246 -621 280
l-78 34 5 53 c7 67 58 155 101 176 30 15 34 14 146 -47 265 -142 712 -355 762
-363 31 -5 30 -3 -15 21 -45 24 -47 27 -42 63 15 117 26 224 35 357 11 157 30
366 55 595 24 222 29 320 17 320 -6 0 -13 -37 -17 -87 -3 -49 -8 -92 -9 -98
-3 -12 -96 129 -96 146 0 7 23 47 50 89 l51 77 -42 74 c-47 84 -109 172 -116
165 -3 -2 25 -54 61 -115 36 -61 66 -115 66 -120 0 -5 -23 -46 -51 -90 l-51
-80 62 -98 c61 -97 62 -99 55 -153 -11 -99 -43 -423 -50 -508 -4 -46 -11 -80
-15 -75 -4 4 -19 44 -33 88 -65 202 -116 595 -118 919 l-2 218 53 29 c76 42
136 94 166 145 14 24 29 44 34 44 4 0 26 -20 49 -45z m-1001 -208 c50 -46 52
-51 52 -100 0 -29 7 -90 15 -137 18 -106 41 -299 54 -450 16 -175 63 -450 108
-619 6 -23 1 -21 -90 27 -53 29 -103 52 -111 52 -21 0 -216 99 -216 109 0 4
12 18 26 32 52 47 84 100 84 139 0 46 -24 70 -79 77 -49 7 -48 2 -21 148 11
60 20 136 20 169 0 74 8 106 25 106 20 0 62 55 70 91 10 43 -2 94 -29 126 -18
22 -25 49 -35 132 -8 79 -20 123 -46 184 -19 44 -35 87 -35 95 0 9 35 -18 78
-59 42 -41 101 -96 130 -122z m-904 148 c19 -14 42 -38 51 -52 17 -25 17 -26
-1 -18 -35 14 -131 17 -169 5 -20 -7 -52 -25 -70 -42 l-34 -29 6 38 c8 58 25
86 58 101 17 7 37 17 45 22 24 15 77 4 114 -25z m548 -22 c-2 -17 1 -21 12
-17 8 3 12 12 9 20 -17 45 79 -23 107 -76 17 -32 24 -134 10 -174 -13 -41 -32
-46 -54 -14 -9 12 -16 18 -16 12 0 -6 9 -19 20 -29 24 -22 13 -41 -39 -62 -32
-14 -36 -13 -48 3 -7 10 -13 22 -13 28 0 5 -3 7 -6 4 -3 -4 -1 -15 5 -26 9
-16 7 -21 -9 -25 -33 -9 -62 4 -57 24 3 10 -1 20 -8 23 -8 3 -11 -2 -8 -15 12
-46 -68 -3 -102 54 -73 126 24 300 165 294 30 -2 35 -5 32 -24z m-543 -64 c21
-8 31 -18 32 -32 0 -19 1 -20 8 -4 6 17 8 17 34 -3 59 -47 86 -142 63 -227
-16 -60 -34 -89 -73 -114 -36 -24 -41 -24 -46 4 -4 20 -4 19 -6 -4 -1 -20 -8
-29 -27 -33 -50 -13 -70 4 -66 57 1 10 -2 16 -7 13 -5 -4 -12 0 -15 6 -8 17 0
-22 9 -44 10 -24 -10 -23 -51 3 -75 46 -115 179 -80 263 13 30 19 37 28 28 7
-7 17 -12 23 -12 5 0 1 8 -10 16 -20 15 -19 16 14 45 21 20 40 29 52 26 11 -3
17 -1 14 3 -11 18 59 24 104 9z m1574 -271 c10 -379 60 -726 138 -952 40 -116
41 -122 34 -205 -4 -47 -12 -123 -19 -168 l-11 -83 -195 95 c-224 107 -198 76
-225 277 -30 228 -38 431 -30 798 4 195 10 379 14 409 l6 54 95 -1 c52 -1 113
2 135 7 22 5 43 9 46 10 3 0 9 -108 12 -241z m-908 -20 c-4 -18 -20 -44 -36
-59 -16 -15 -29 -32 -29 -38 0 -6 -18 -11 -42 -11 -35 0 -49 6 -80 37 -21 20
-38 40 -38 43 0 3 26 4 58 2 45 -3 70 2 106 18 25 12 49 26 52 31 11 19 15 8
9 -23z m147 -92 c0 -26 -7 -58 -16 -71 -17 -27 -42 -34 -33 -11 3 8 9 46 13
86 6 62 9 70 21 57 9 -8 15 -34 15 -61z m-124 -38 c35 -70 40 -200 14 -348
-27 -152 -36 -249 -24 -280 9 -23 10 -20 17 25 10 76 11 78 47 71 17 -3 37
-11 45 -17 18 -16 16 -59 -3 -89 -29 -42 -97 -110 -112 -110 -21 0 3 -27 40
-46 l28 -15 -35 -34 c-19 -20 -38 -47 -41 -60 -3 -14 -8 -25 -10 -25 -2 0 -32
15 -66 34 -38 21 -90 40 -132 47 -101 17 -124 42 -189 204 -29 72 -84 182
-123 245 -116 190 -158 270 -146 282 31 31 117 -75 202 -246 60 -122 86 -154
116 -142 16 6 20 86 4 86 -5 0 -10 -13 -10 -30 0 -16 -4 -30 -8 -30 -13 0 -32
23 -32 38 0 23 60 92 80 92 22 0 59 -46 90 -112 25 -55 58 -90 45 -48 -4 14
-18 45 -30 70 -24 49 -21 82 11 94 32 12 55 -5 100 -75 24 -38 48 -69 52 -69
12 0 13 21 17 290 1 129 3 239 4 243 3 21 28 -3 49 -45z m-588 -32 c-16 -48
-41 -69 -72 -57 -15 5 -30 5 -41 0 -22 -13 -42 -1 -92 52 -25 26 -33 39 -20
34 46 -19 131 -17 173 4 22 11 44 26 49 33 13 21 16 -28 3 -66z m-225 -447
c91 -44 190 -69 276 -69 l57 0 43 -117 c44 -118 82 -177 125 -193 24 -10 27
-31 39 -341 5 -122 4 -148 -9 -158 -8 -7 -57 -15 -110 -18 -115 -7 -111 -18
-60 152 59 197 91 377 65 361 -5 -3 -14 -36 -21 -73 -34 -204 -219 -801 -418
-1353 -115 -319 -126 -343 -158 -352 -62 -17 -286 35 -420 96 -148 69 -323
206 -359 282 l-16 35 54 112 c30 62 91 186 135 277 45 91 113 237 152 325 40
88 92 203 115 255 24 52 59 131 78 174 35 79 60 112 237 315 106 121 130 151
130 164 0 16 -50 -35 -163 -167 -56 -65 -130 -150 -165 -189 -35 -38 -93 -107
-129 -153 -37 -46 -72 -84 -78 -84 -6 0 -33 7 -60 16 -81 28 -156 122 -171
213 -7 41 -6 41 77 124 46 45 140 134 209 197 69 63 176 163 238 222 l114 107
56 -60 c41 -45 75 -70 137 -100z m739 83 c-7 -35 -18 -41 -28 -16 -4 10 1 25
10 36 22 23 26 19 18 -20z m1539 -312 c20 -69 45 -163 57 -210 26 -100 194
-572 243 -680 18 -41 83 -199 142 -350 159 -401 355 -787 513 -1010 83 -117
245 -313 337 -409 98 -102 250 -234 333 -289 29 -19 50 -37 47 -40 -7 -8 -201
87 -305 149 -234 140 -381 249 -513 382 -143 145 -299 325 -385 445 -31 44
-84 118 -117 164 -53 72 -168 249 -259 396 -41 66 -217 422 -267 539 l-41 96
22 66 c31 93 138 775 140 889 1 32 16 -8 53 -138z m-1330 -141 c55 -28 54 -25
25 -57 -14 -15 -34 -42 -44 -59 -10 -18 -22 -33 -27 -33 -15 0 -97 52 -97 61
0 32 65 109 92 109 5 0 28 -10 51 -21z m-1781 -203 c9 -18 31 -51 50 -71 l33
-38 -75 -69 c-41 -38 -122 -110 -180 -161 -58 -51 -132 -117 -165 -148 -33
-31 -135 -124 -228 -208 -92 -84 -172 -162 -178 -172 -8 -17 0 -31 55 -96 79
-91 85 -113 24 -82 -24 12 -61 34 -83 49 -74 50 -82 48 -206 -46 -63 -48 -137
-89 -146 -81 -3 3 39 51 92 106 54 56 94 101 89 102 -37 4 -103 -6 -182 -27
-103 -27 -122 -29 -122 -14 0 15 86 55 183 85 48 14 87 31 87 36 0 13 -37 27
-160 59 l-105 27 50 8 c34 6 76 3 134 -8 47 -9 87 -14 89 -12 7 7 -41 75 -83
118 -82 82 8 45 97 -41 43 -40 57 -60 52 -74 -16 -51 49 2 265 215 529 521
586 577 592 577 3 0 13 -15 21 -34z m2268 -341 c22 -11 31 -24 35 -53 3 -20
12 -68 20 -107 8 -38 19 -101 24 -140 6 -38 19 -114 29 -168 19 -96 19 -98 0
-122 -11 -14 -23 -25 -28 -25 -8 0 -118 437 -140 555 -6 33 -14 68 -16 78 -5
15 -2 16 20 7 15 -5 39 -16 56 -25z m-964 -59 c-30 -244 -76 -842 -76 -997 l0
-86 71 -7 c73 -7 178 -37 213 -62 20 -14 20 -14 -6 -14 -22 0 -123 27 -174 47
-8 3 -14 1 -14 -4 0 -6 36 -29 79 -52 75 -41 159 -111 133 -111 -24 0 -114 51
-167 95 -51 41 -91 62 -101 52 -2 -2 19 -20 48 -40 76 -53 172 -177 149 -191
-4 -3 -32 17 -62 45 -30 28 -70 62 -90 74 -20 13 -42 30 -50 38 -18 18 -59 40
-59 31 0 -3 26 -35 58 -70 58 -62 82 -112 82 -169 0 -23 -2 -25 -15 -15 -8 6
-25 31 -39 54 -26 44 -107 114 -173 147 -45 23 -96 25 -113 4 -11 -14 -6 -23
35 -65 27 -27 46 -52 43 -56 -15 -14 -73 11 -108 46 -78 78 -69 126 30 160
l55 19 7 98 c4 54 12 215 18 358 19 463 28 598 45 660 l17 60 85 1 85 1 -6
-51z m1364 -116 c77 -26 158 -24 190 5 19 18 20 17 36 -21 9 -21 24 -59 35
-83 11 -24 18 -46 16 -47 -2 -2 -29 -6 -60 -10 l-57 -7 5 34 6 34 -21 -39 -22
-38 -148 3 c-167 5 -177 8 -211 84 -17 38 -19 38 -19 12 0 -15 8 -40 17 -55
l17 -27 -25 23 c-29 26 -41 28 -33 7 4 -8 1 -15 -5 -15 -7 0 -13 6 -15 13 -5
14 -33 174 -42 234 l-6 42 138 -64 c77 -35 168 -73 204 -85z m-3 -200 c59 0
61 -1 72 -31 22 -64 18 -69 -53 -69 -109 0 -123 6 -140 58 -9 25 -16 48 -16
50 0 3 17 2 38 -2 20 -3 65 -6 99 -6z m171 -405 c17 -6 291 -430 429 -665 57
-97 126 -210 242 -394 45 -72 81 -133 81 -137 0 -4 -42 -5 -92 -2 -103 6 -215
-11 -309 -46 -68 -26 -171 -102 -227 -167 l-40 -47 -30 64 c-16 35 -56 118
-87 184 -137 286 -228 577 -285 912 l-23 132 28 37 c15 20 54 64 86 99 l59 63
78 -15 c42 -7 83 -16 90 -18z m-334 -334 c15 -79 25 -148 23 -154 -4 -13 -77
231 -77 259 0 17 19 48 26 41 1 -1 14 -67 28 -146z m1470 -705 c90 -87 148
-131 316 -243 211 -140 216 -144 357 -208 133 -62 127 -68 -47 -40 -144 24
-303 78 -479 164 l-85 41 -56 107 c-31 60 -87 165 -123 234 -37 69 -67 130
-67 134 0 5 30 -24 67 -65 37 -41 90 -97 117 -124z m-4918 -1220 c-17 -33 -37
-61 -42 -63 -13 -4 -74 36 -87 58 -7 11 0 30 28 72 l37 56 48 -32 49 -32 -33
-59z m450 47 c27 -14 50 -27 52 -28 7 -5 -45 -85 -56 -85 -23 0 -82 29 -88 44
-5 12 30 96 40 96 2 0 25 -12 52 -27z m3245 -32 c35 -28 86 -70 114 -94 43
-39 48 -47 36 -61 -18 -22 -88 -39 -130 -32 -19 3 -61 24 -95 47 -106 73 -102
64 -51 121 25 28 45 54 45 59 0 17 18 9 81 -40z m-3840 -36 c29 -36 75 -66
107 -69 24 -3 29 -10 41 -57 61 -244 71 -272 116 -321 60 -64 59 -77 -7 -80
-129 -5 -179 5 -224 44 -50 44 -113 130 -164 222 l-43 79 29 55 c26 49 108
152 121 152 3 0 14 -11 24 -25z m519 -48 c14 -8 42 -18 62 -21 43 -8 60 -32
124 -174 30 -66 35 -85 24 -92 -9 -6 -2 -14 26 -28 21 -11 52 -32 68 -47 26
-24 27 -28 13 -36 -9 -5 -59 -6 -114 -3 l-98 7 -128 126 c-71 69 -133 134
-139 144 -10 20 10 57 75 141 30 37 31 38 46 18 9 -11 27 -26 41 -35z m5280
-322 c28 -47 49 -92 46 -100 -7 -20 -78 -39 -119 -31 -31 6 -40 15 -71 70 -20
36 -36 69 -36 74 0 6 13 13 28 17 16 3 44 17 63 30 19 13 35 24 35 25 1 0 25
-38 54 -85z"/>
<path d="M5025 7585 c-39 -14 -102 -71 -91 -83 4 -3 21 9 40 27 38 37 90 52
141 41 44 -10 46 4 4 19 -40 14 -45 13 -94 -4z"/>
<path d="M4683 7565 c49 -13 82 -31 111 -60 12 -13 16 -13 16 -2 0 36 -76 78
-138 76 l-37 -1 48 -13z"/>
<path d="M4550 7521 c-145 -44 -221 -194 -176 -344 32 -106 121 -171 230 -170
107 2 199 49 235 121 28 56 35 146 15 212 -36 124 -190 215 -304 181z m158
-47 c97 -48 139 -129 130 -249 -7 -86 -34 -126 -105 -161 -101 -50 -200 -43
-271 20 -125 110 -86 343 68 405 48 19 123 13 178 -15z"/>
<path d="M4711 7257 c-16 -16 -14 -34 5 -41 21 -8 45 11 38 29 -8 19 -30 25
-43 12z"/>
<path d="M4931 6982 c1 -117 -12 -164 -43 -170 -24 -5 -38 30 -45 109 -7 77
-18 96 -27 46 -7 -36 7 -125 24 -157 27 -51 92 -27 111 42 14 52 8 213 -8 229
-9 9 -12 -12 -12 -99z"/>
<path d="M4990 7016 c0 -23 66 -57 123 -63 54 -5 117 15 117 37 0 14 -14 12
-28 -2 -7 -7 -38 -12 -70 -13 -47 0 -66 5 -100 28 -30 20 -42 23 -42 13z"/>
<path d="M4450 6981 c0 -20 53 -50 106 -61 65 -14 138 0 179 32 38 29 24 33
-27 7 -63 -34 -150 -32 -212 5 -25 15 -46 22 -46 17z"/>
<path d="M5160 6635 c0 -2 13 -11 29 -20 53 -27 53 -89 1 -100 -38 -8 -49 -25
-17 -25 32 0 77 36 77 61 0 28 -26 75 -45 83 -20 7 -45 8 -45 1z"/>
<path d="M4673 6605 c-29 -8 -69 -22 -90 -31 -54 -24 -19 -30 53 -9 53 15 57
15 70 -2 7 -10 14 -21 14 -25 0 -3 16 -15 35 -27 22 -13 42 -36 51 -58 19 -45
42 -73 60 -73 28 0 44 31 44 84 0 47 3 54 25 64 16 8 28 23 31 42 4 16 8 30 9
30 2 0 39 -7 82 -15 91 -18 131 -19 117 -5 -37 37 -390 55 -501 25z m277 -20
c0 -8 -13 -24 -30 -37 -27 -19 -30 -28 -30 -74 0 -63 -21 -88 -43 -52 -8 13
-18 33 -22 45 -3 12 -25 37 -48 55 -87 68 -81 72 96 76 62 2 77 -1 77 -13z"/>
<path d="M4494 6587 c-49 -42 -27 -107 35 -107 36 0 71 11 71 21 0 5 -13 6
-30 3 -80 -16 -108 32 -47 80 22 18 27 26 15 26 -9 0 -29 -10 -44 -23z"/>
<path d="M4722 6408 c2 -25 8 -33 23 -33 16 0 20 7 20 30 0 24 -5 31 -23 33
-21 3 -23 0 -20 -30z m33 3 c3 -5 1 -12 -5 -16 -5 -3 -10 1 -10 9 0 18 6 21
15 7z"/>
<path d="M4941 6402 c-7 -14 -6 -25 5 -40 18 -26 37 -28 54 -7 10 12 9 20 -4
40 -19 30 -41 32 -55 7z m43 -18 c4 -9 4 -19 1 -22 -7 -8 -35 19 -29 29 8 14
21 11 28 -7z"/>
<path d="M5063 7263 c-14 -5 -18 -39 -5 -47 13 -8 45 22 39 39 -7 15 -13 17
-34 8z"/>
<path d="M3470 7094 c1 -5 7 -20 14 -34 10 -17 11 -30 5 -42 -7 -14 -6 -18 6
-18 23 0 20 63 -5 85 -11 10 -20 14 -20 9z"/>
<path d="M3589 7074 c12 -15 21 -40 21 -56 0 -17 4 -27 10 -23 25 16 -10 105
-41 105 -6 0 -1 -12 10 -26z"/>
<path d="M3285 7010 c0 -53 11 -66 21 -25 7 27 -2 75 -14 75 -4 0 -7 -22 -7
-50z"/>
<path d="M3722 6445 c-7 -14 -12 -40 -11 -58 l0 -32 13 35 c24 64 27 80 18 80
-5 0 -14 -11 -20 -25z"/>
<path d="M3468 6420 c18 -17 49 -63 67 -103 22 -45 34 -64 35 -49 0 33 -55
136 -86 161 -41 32 -53 25 -16 -9z"/>
<path d="M3753 5919 c20 -17 37 -39 37 -50 0 -24 -43 -35 -76 -20 -14 6 -32
11 -41 11 -28 0 3 -26 48 -39 34 -10 44 -10 65 4 15 10 24 25 24 42 0 33 -46
83 -74 83 -18 -1 -15 -6 17 -31z"/>
<path d="M3843 5763 c-39 -8 -114 -84 -144 -147 -16 -33 -26 -62 -23 -65 7 -7
11 0 55 77 35 62 99 112 143 112 34 -1 53 -13 79 -50 16 -23 17 -23 17 -4 0
25 -43 74 -64 74 -8 0 -20 2 -28 4 -7 2 -23 1 -35 -1z"/>
<path d="M3809 5661 c-16 -16 -29 -38 -29 -48 1 -14 5 -12 22 11 12 16 40 37
62 47 l41 19 -33 0 c-24 0 -42 -8 -63 -29z"/>
<path d="M3109 6263 c-23 -68 -15 -233 11 -233 6 0 7 11 3 28 -12 40 -8 172 5
210 6 17 7 32 2 32 -5 0 -14 -17 -21 -37z"/>
<path d="M3230 5722 c0 -26 79 -73 123 -71 16 0 10 6 -21 20 -24 10 -57 28
-73 40 -16 11 -29 16 -29 11z"/>
<path d="M3890 6151 c-12 -24 1 -35 30 -26 25 8 25 21 0 35 -15 8 -21 6 -30
-9z"/>
<path d="M3446 6065 c-3 -8 3 -19 14 -25 27 -14 30 -13 30 15 0 18 -5 25 -19
25 -10 0 -21 -7 -25 -15z"/>
</g>
</svg>
