<?xml version="1.0" standalone="no"?>
<!DOCTYPE svg PUBLIC "-//W3C//DTD SVG 20010904//EN"
 "http://www.w3.org/TR/2001/REC-SVG-20010904/DTD/svg10.dtd">
<svg version="1.0" xmlns="http://www.w3.org/2000/svg"
 width="750.000000pt" height="1000.000000pt" viewBox="0 0 750.000000 1000.000000"
 preserveAspectRatio="xMidYMid meet">

<g transform="translate(0.000000,1000.000000) scale(0.100000,-0.100000)"
fill="#000000" stroke="none">
<path d="M5399 8942 c-137 -104 -245 -177 -320 -217 -62 -33 -228 -138 -368
-233 -331 -225 -436 -303 -420 -312 14 -9 5 -40 -11 -40 -6 0 -13 7 -17 16 -8
22 -75 -44 -171 -171 -73 -95 -396 -572 -405 -598 -6 -18 -28 4 -227 223 -203
223 -276 295 -412 404 -132 105 -274 231 -388 346 -104 104 -218 261 -351 483
-111 184 -122 182 -179 -18 -83 -297 -96 -525 -46 -825 55 -334 58 -375 60
-752 0 -196 4 -359 7 -362 3 -4 41 -1 85 5 110 16 278 5 395 -25 263 -66 467
-201 627 -411 178 -235 251 -462 239 -745 -5 -124 -46 -329 -83 -418 -9 -23
-11 -39 -5 -45 7 -7 14 -1 20 16 12 32 -29 29 421 34 184 3 349 5 365 5 17 0
98 0 182 -1 124 -2 156 0 175 13 14 9 28 13 31 9 4 -4 30 -8 58 -9 49 -2 51
-1 45 22 -5 17 -2 26 9 30 23 9 31 -4 17 -26 -17 -28 -16 -46 3 -30 12 10 18
10 29 1 10 -8 16 -9 21 -1 3 5 40 10 82 10 57 0 81 4 95 17 17 15 19 15 38 -2
11 -10 17 -22 14 -26 -7 -13 10 -11 22 1 13 13 210 26 314 20 201 -10 359 -3
383 18 14 12 22 13 43 3 15 -6 35 -9 45 -6 11 4 19 2 19 -4 0 -14 67 -14 75
-1 4 6 25 10 48 8 32 -2 42 1 42 12 1 8 6 14 13 12 18 -3 241 186 355 302 170
171 301 350 431 586 120 216 278 402 519 608 53 46 87 82 87 94 0 47 -162 73
-404 65 -191 -7 -324 -30 -560 -96 -78 -22 -179 -47 -226 -55 -160 -29 -489
-57 -640 -54 l-145 3 2 128 c2 71 5 132 7 135 2 4 6 50 10 102 16 227 41 421
82 650 25 135 42 255 39 267 -3 13 -1 23 4 23 23 0 58 318 72 650 12 279 8
321 -28 319 -10 0 -111 -71 -224 -157z m-3172 -118 c8 -21 -13 -42 -28 -27
-13 13 -5 43 11 43 6 0 13 -7 17 -16z m58 -14 c3 -5 1 -10 -4 -10 -6 0 -11 5
-11 10 0 6 2 10 4 10 3 0 8 -4 11 -10z m-155 -300 c0 -5 -2 -10 -4 -10 -3 0
-8 5 -11 10 -3 6 -1 10 4 10 6 0 11 -4 11 -10z m2840 -4 c0 -8 -5 -18 -11 -22
-14 -8 -33 11 -25 25 10 16 36 13 36 -3z m280 -20 c0 -3 -4 -8 -10 -11 -5 -3
-10 -1 -10 4 0 6 5 11 10 11 6 0 10 -2 10 -4z m-2820 -96 c0 -5 -5 -10 -11
-10 -5 0 -7 5 -4 10 3 6 8 10 11 10 2 0 4 -4 4 -10z m2888 -113 c2 -10 -3 -17
-12 -17 -18 0 -29 16 -21 31 9 14 29 6 33 -14z m-3218 -91 c0 -3 -4 -8 -10
-11 -5 -3 -10 -1 -10 4 0 6 5 11 10 11 6 0 10 -2 10 -4z m2410 -56 c0 -5 -2
-10 -4 -10 -3 0 -8 5 -11 10 -3 6 -1 10 4 10 6 0 11 -4 11 -10z m685 -159 c7
-12 -12 -24 -25 -16 -11 7 -4 25 10 25 5 0 11 -4 15 -9z m-1037 -33 c-6 -18
-28 -21 -28 -4 0 9 7 16 16 16 9 0 14 -5 12 -12z m1102 -58 c0 -5 -4 -10 -10
-10 -5 0 -10 5 -10 10 0 6 5 10 10 10 6 0 10 -4 10 -10z m-112 -112 c17 -17
15 -26 -10 -39 -18 -9 -24 -8 -34 6 -25 34 14 63 44 33z m322 -83 c0 -8 -7
-15 -15 -15 -16 0 -20 12 -8 23 11 12 23 8 23 -8z m-3305 -4 c3 -5 1 -12 -5
-16 -5 -3 -10 1 -10 9 0 18 6 21 15 7z m749 -46 c3 -8 1 -15 -4 -15 -6 0 -10
7 -10 15 0 8 2 15 4 15 2 0 6 -7 10 -15z m1356 0 c0 -8 -7 -15 -15 -15 -16 0
-20 12 -8 23 11 12 23 8 23 -8z m255 -236 c-4 -5 -12 -9 -18 -8 -9 0 -8 2 1 6
6 2 9 10 6 15 -4 7 -2 8 5 4 6 -4 9 -12 6 -17z m556 -184 c-1 -15 -24 -12 -29
3 -3 9 2 13 12 10 10 -1 17 -7 17 -13z m-947 -40 c3 -8 1 -15 -4 -15 -6 0 -10
7 -10 15 0 8 2 15 4 15 2 0 6 -7 10 -15z m-1577 -200 c0 -8 -4 -15 -9 -15 -4
0 -8 7 -8 15 0 8 4 15 8 15 5 0 9 -7 9 -15z m-367 -25 c0 -5 -5 -10 -11 -10
-5 0 -7 5 -4 10 3 6 8 10 11 10 2 0 4 -4 4 -10z m4490 -34 c0 -3 -4 -8 -10
-11 -5 -3 -10 -1 -10 4 0 6 5 11 10 11 6 0 10 -2 10 -4z m420 -66 c0 -5 -5
-12 -11 -16 -14 -8 -33 11 -25 25 7 11 36 4 36 -9z m-2190 -34 c0 -19 -26 -27
-39 -12 -13 15 -4 26 21 26 10 0 18 -6 18 -14z m-45 -26 c3 -5 1 -10 -4 -10
-6 0 -11 5 -11 10 0 6 2 10 4 10 3 0 8 -4 11 -10z m205 -20 c0 -5 -5 -10 -11
-10 -5 0 -7 5 -4 10 3 6 8 10 11 10 2 0 4 -4 4 -10z m1611 -73 c-1 -12 -15 -9
-19 4 -3 6 1 10 8 8 6 -3 11 -8 11 -12z m-1031 -21 c0 -16 -18 -31 -27 -22 -8
8 5 36 17 36 5 0 10 -6 10 -14z m-250 -93 c0 -15 -2 -16 -10 -3 -8 12 -10 12
-10 1 0 -8 -3 -12 -6 -8 -8 7 4 27 17 27 5 0 9 -8 9 -17z m-890 -83 c0 -5 -7
-7 -15 -4 -8 4 -15 8 -15 10 0 2 7 4 15 4 8 0 15 -4 15 -10z m750 -140 c0 -5
-4 -10 -10 -10 -5 0 -10 5 -10 10 0 6 5 10 10 10 6 0 10 -4 10 -10z m-52 -133
c2 -12 -3 -17 -17 -17 -12 0 -21 6 -21 13 0 31 32 34 38 4z m-1678 -36 c0 -12
-20 -25 -27 -18 -7 7 6 27 18 27 5 0 9 -4 9 -9z m2708 -4 c8 -10 6 -13 -9 -13
-19 0 -24 7 -12 19 8 9 9 9 21 -6z m-2308 -107 c0 -11 -30 -21 -42 -14 -5 3
-1 12 9 19 18 13 33 11 33 -5z m885 -160 c3 -5 -1 -10 -9 -10 -9 0 -16 5 -16
10 0 6 4 10 9 10 6 0 13 -4 16 -10z m963 -372 c-3 -25 -34 -36 -50 -20 -17 17
-1 42 27 42 22 0 26 -4 23 -22z m-2108 -13 c0 -8 -6 -15 -14 -15 -17 0 -28 14
-19 24 12 12 33 6 33 -9z m1650 -5 c0 -5 -4 -10 -10 -10 -5 0 -10 5 -10 10 0
6 5 10 10 10 6 0 10 -4 10 -10z m-1370 -50 c0 -5 -4 -10 -10 -10 -5 0 -10 5
-10 10 0 6 5 10 10 10 6 0 10 -4 10 -10z m370 -11 c0 -5 -7 -9 -15 -9 -15 0
-20 12 -9 23 8 8 24 -1 24 -14z m290 11 c0 -5 -4 -10 -10 -10 -5 0 -10 5 -10
10 0 6 5 10 10 10 6 0 10 -4 10 -10z m30 -70 c0 -11 -7 -20 -15 -20 -15 0 -21
21 -8 33 12 13 23 7 23 -13z m-584 -29 c-9 -14 -33 -14 -41 -1 -4 6 -1 18 6
26 11 13 14 13 27 0 8 -8 11 -19 8 -25z m1984 14 c0 -2 -9 -3 -19 -2 -11 0
-18 5 -15 9 4 6 34 0 34 -7z"/>
<path d="M238 7114 c-21 -20 0 -61 98 -189 121 -161 160 -218 274 -404 45 -74
103 -159 130 -190 26 -31 82 -109 124 -173 50 -78 123 -169 218 -273 l143
-156 3 48 c11 226 79 436 199 623 67 103 200 237 306 308 78 52 78 52 51 62
-20 8 -29 8 -35 -2 -6 -9 -14 -5 -32 14 -38 41 -130 64 -472 119 -224 36 -329
60 -525 122 -208 65 -461 113 -482 91z m562 -314 c0 -5 -5 -10 -11 -10 -5 0
-7 5 -4 10 3 6 8 10 11 10 2 0 4 -4 4 -10z m416 -51 c10 -17 -13 -36 -27 -22
-12 12 -4 33 11 33 5 0 12 -5 16 -11z m184 -113 c0 -8 -5 -18 -11 -22 -14 -8
-33 11 -25 25 10 16 36 13 36 -3z m-514 -27 c10 -17 -13 -36 -27 -22 -12 12
-4 33 11 33 5 0 12 -5 16 -11z m445 -342 c-10 -9 -11 -8 -5 6 3 10 9 15 12 12
3 -3 0 -11 -7 -18z"/>
<path d="M2833 6421 c-34 -16 -44 -27 -54 -61 -11 -38 -11 -46 7 -78 28 -52
67 -77 121 -77 39 0 49 5 79 37 25 28 34 46 33 70 l-1 33 -7 -30 c-12 -50 -31
-76 -65 -90 -89 -37 -184 59 -150 150 10 25 58 45 110 45 39 0 51 -5 80 -34
19 -19 34 -30 34 -24 0 19 -59 65 -91 72 -44 9 -49 8 -96 -13z"/>
<path d="M2907 6344 c-8 -8 1 -24 14 -24 5 0 9 7 9 15 0 15 -12 20 -23 9z"/>
<path d="M2452 6285 c-48 -21 -79 -93 -63 -146 22 -72 100 -101 172 -64 34 18
69 69 69 102 0 80 -102 141 -178 108z m109 -21 c39 -20 60 -67 48 -107 -24
-85 -132 -116 -190 -54 -17 18 -20 31 -16 76 3 44 9 59 31 78 32 27 83 30 127
7z"/>
<path d="M2446 6171 c-4 -7 -5 -15 -2 -18 9 -9 19 4 14 18 -4 11 -6 11 -12 0z"/>
<path d="M2929 6106 c-3 -3 -49 -16 -102 -30 -54 -14 -118 -37 -142 -52 -187
-109 -389 -540 -347 -740 21 -101 102 -179 218 -209 237 -62 473 20 569 197
38 69 44 174 21 354 -31 245 -104 463 -158 478 -27 7 -53 8 -59 2z m80 -42
c65 -83 130 -379 132 -607 1 -108 -1 -121 -25 -171 -15 -30 -42 -67 -61 -83
-19 -15 -51 -41 -70 -56 -57 -47 -129 -69 -238 -75 -191 -10 -327 49 -382 165
-34 68 -22 219 26 330 32 75 118 95 254 59 32 -9 96 -16 141 -16 74 0 86 -3
113 -26 17 -14 31 -22 31 -17 0 22 -61 52 -117 58 -94 9 -128 16 -114 24 9 6
5 21 -15 59 -15 28 -30 49 -35 47 -4 -3 -11 0 -15 6 -4 8 -3 9 4 5 29 -18 8
14 -38 58 -27 26 -47 52 -44 57 3 6 35 9 70 8 51 -2 67 -6 85 -25 33 -35 89
-15 89 32 0 22 3 23 44 18 l44 -6 17 51 c9 28 14 61 12 73 -4 20 -4 19 -6 -4
-1 -34 -8 -35 -38 -6 -19 18 -25 19 -36 8 -10 -10 -9 -12 5 -7 24 8 50 -33 46
-70 -7 -60 -68 -29 -68 34 0 20 -3 33 -7 29 -4 -4 -6 -23 -5 -43 l3 -35 -36
21 c-28 16 -41 19 -56 11 -10 -6 -19 -13 -19 -16 0 -2 10 0 21 7 18 9 25 8 39
-7 26 -26 29 -74 8 -88 -22 -13 -47 0 -64 33 -7 14 -14 19 -18 12 -8 -12 -106
-15 -106 -3 0 16 86 90 129 112 48 24 209 68 253 69 17 1 34 -8 47 -25z m-502
-296 c-3 -8 -6 -5 -6 6 -1 11 2 17 5 13 3 -3 4 -12 1 -19z m-36 -95 c13 -16
12 -17 -3 -4 -10 7 -18 15 -18 17 0 8 8 3 21 -13z m56 -9 c-3 -3 -12 -4 -19
-1 -8 3 -5 6 6 6 11 1 17 -2 13 -5z"/>
<path d="M2464 5529 c-5 -9 3 -10 30 -5 29 6 36 4 36 -9 0 -9 4 -14 9 -11 5 4
7 -2 4 -13 -3 -13 9 -32 38 -61 39 -39 44 -41 56 -24 49 66 63 76 106 68 47
-8 108 -7 148 1 19 4 28 14 32 33 4 23 3 24 -7 10 -34 -46 -99 -48 -253 -8
-121 31 -187 38 -199 19z"/>
<path d="M2470 5457 c-1 -23 59 -105 89 -121 9 -5 3 5 -13 22 -16 17 -39 48
-52 69 -13 21 -24 34 -24 30z"/>
<path d="M2856 5421 c-4 -5 3 -7 14 -4 23 6 26 13 6 13 -8 0 -17 -4 -20 -9z"/>
<path d="M2917 5413 c-14 -13 -6 -24 12 -18 21 6 41 -18 41 -50 0 -12 -8 -16
-32 -13 -25 2 -34 9 -39 28 -4 14 -7 19 -8 12 -1 -7 -11 -17 -23 -22 -22 -8
-22 -9 5 -9 37 -1 35 -39 -3 -54 -9 -3 -4 -6 11 -6 20 -1 26 4 25 17 -1 13 7
17 29 17 23 0 30 -5 36 -25 4 -17 6 -7 7 30 1 43 -4 60 -20 77 -23 24 -30 27
-41 16z"/>
<path d="M2842 5380 c0 -14 2 -19 5 -12 2 6 2 18 0 25 -3 6 -5 1 -5 -13z"/>
<path d="M2508 5290 c-8 -13 -24 -20 -44 -20 -29 0 -91 -36 -80 -47 2 -3 14 5
25 16 13 13 34 21 56 21 24 0 37 6 45 20 12 22 45 27 56 9 4 -7 7 -26 7 -43
-1 -25 1 -27 7 -11 4 11 3 32 -2 48 -12 33 -51 37 -70 7z"/>
<path d="M2827 5273 c-4 -3 -7 -16 -7 -27 -1 -20 -1 -20 -14 -3 -13 16 -14 15
-13 -18 2 -63 -48 -74 -68 -15 -10 30 -12 32 -17 13 -4 -15 2 -28 16 -42 30
-28 52 -26 73 7 9 15 18 29 20 31 2 2 13 -4 25 -15 23 -19 23 -19 6 2 -21 24
-24 60 -5 67 6 3 7 6 1 6 -6 1 -14 -2 -17 -6z"/>
<path d="M2607 5253 c-14 -16 -14 -21 3 -53 22 -40 25 -37 9 9 -8 24 -8 35 1
46 17 21 6 19 -13 -2z"/>
<path d="M2670 5251 c17 -32 12 -61 -12 -71 -17 -6 -18 -9 -6 -9 9 -1 24 9 32
20 13 19 13 25 0 50 -8 16 -17 29 -20 29 -2 0 0 -9 6 -19z"/>
<path d="M2736 5261 c-3 -4 6 -6 19 -3 14 2 25 6 25 8 0 8 -39 4 -44 -5z"/>
<path d="M2911 5248 c-1 -16 -10 -37 -21 -48 -11 -11 -16 -20 -10 -20 5 0 17
11 26 24 9 16 21 23 31 19 15 -6 33 12 33 32 -1 6 -5 2 -11 -7 -13 -24 -24
-23 -37 5 -10 22 -11 22 -11 -5z"/>
<path d="M2504 5237 c3 -10 6 -21 6 -23 0 -2 12 -3 28 -3 20 1 22 2 7 6 -11 3
-26 12 -34 21 -13 16 -13 16 -7 -1z"/>
<path d="M1164 5430 c-130 -40 -305 -111 -298 -121 3 -5 -1 -7 -8 -4 -14 6
-222 -108 -235 -128 -6 -11 16 2 72 40 24 16 39 17 29 1 -4 -7 -3 -8 5 -4 6 4
9 11 6 16 -7 12 48 20 60 9 7 -7 5 -8 -6 -4 -9 3 -21 -2 -29 -12 -12 -15 -12
-16 0 -5 8 6 18 12 23 12 4 0 5 -6 1 -12 -4 -7 1 -6 12 4 23 20 114 36 114 19
0 -12 56 -15 63 -3 3 4 63 8 134 10 70 1 140 5 156 8 18 4 27 1 27 -7 0 -10 3
-10 12 -1 10 10 10 15 2 20 -8 5 -7 11 4 22 14 13 15 12 9 -3 -3 -9 -2 -17 4
-17 6 0 8 -10 4 -22 -5 -18 -4 -20 4 -8 9 12 11 13 11 1 0 -8 3 -12 6 -9 3 3
-6 32 -19 64 -13 33 -32 83 -42 112 -9 28 -20 52 -23 51 -4 0 -48 -13 -98 -29z"/>
<path d="M6012 5337 c-9 -11 -7 -13 11 -12 12 1 39 -6 60 -17 20 -10 37 -16
37 -13 0 8 -80 46 -80 38 0 -5 -4 -2 -9 5 -6 11 -10 10 -19 -1z"/>
<path d="M1928 5130 c-47 -5 -112 -14 -144 -20 -97 -20 -335 -107 -442 -160
l-100 -50 -59 16 c-130 36 -206 46 -333 40 -178 -7 -305 -47 -446 -139 -58
-38 -72 -52 -76 -77 -4 -29 -4 -30 96 -67 123 -46 376 -169 551 -268 115 -65
501 -245 526 -245 22 0 3 -29 -101 -151 -64 -76 -107 -135 -104 -142 4 -7 4
-9 -1 -5 -4 4 -30 -10 -59 -31 -28 -21 -107 -71 -176 -111 -134 -77 -189 -116
-315 -220 -138 -115 -139 -122 -5 -166 121 -39 206 -83 350 -179 63 -42 182
-110 263 -150 82 -41 164 -84 182 -95 l33 -21 -57 -122 c-32 -67 -82 -185
-111 -262 -56 -148 -88 -219 -151 -327 -42 -72 -49 -105 -22 -115 9 -4 114 3
232 15 172 17 235 20 309 13 57 -6 142 -6 215 0 66 5 122 7 124 5 5 -4 -52
-168 -97 -280 -46 -116 -85 -283 -69 -302 26 -31 145 -3 396 94 237 92 215 88
237 49 108 -188 257 -358 436 -493 143 -108 353 -198 567 -241 121 -24 508
-24 668 0 102 16 255 55 350 90 71 26 221 103 296 152 87 57 235 205 321 322
34 46 67 83 73 83 14 0 207 -66 363 -123 122 -46 145 -49 156 -21 8 20 -18
163 -50 269 -26 91 -75 297 -71 301 4 3 206 -33 362 -65 83 -16 206 -37 275
-45 205 -26 220 -24 220 15 0 31 -23 70 -148 249 -114 165 -191 308 -258 482
-19 48 -34 92 -34 97 0 12 212 176 323 250 99 67 167 97 347 155 171 56 174
57 178 83 5 31 -100 120 -214 182 -162 88 -204 119 -314 234 -60 63 -156 148
-225 199 -66 50 -124 94 -129 98 -14 14 172 178 285 250 57 37 58 41 13 140
-46 101 -134 169 -220 170 -68 0 -136 -26 -176 -67 -44 -45 -62 -86 -77 -173
-20 -117 -12 -107 -93 -113 -44 -3 -95 0 -128 8 -202 48 -264 59 -421 75 -137
14 -198 25 -274 50 l-98 33 -247 -5 -247 -5 -74 -50 c-53 -36 -90 -52 -125
-57 -27 -4 -69 -17 -94 -28 -25 -11 -70 -22 -100 -24 -30 -2 -115 -9 -189 -14
-123 -9 -137 -12 -170 -37 -53 -40 -77 -72 -103 -130 -13 -29 -25 -53 -28 -52
-7 0 -74 148 -69 153 2 2 70 36 151 75 120 58 149 75 154 95 4 17 -16 89 -65
228 -40 112 -77 212 -83 223 -7 11 -11 53 -9 98 1 42 -2 78 -6 78 -4 1 -18 3
-29 4 -12 1 -26 5 -32 9 -6 3 -13 2 -17 -4 -3 -5 -17 -10 -30 -10 -19 0 -30
15 -69 95 -26 53 -54 99 -62 102 -26 10 -48 -23 -49 -72 0 -44 -1 -46 -36 -55
-50 -14 -62 -30 -49 -65 11 -29 26 -30 97 -9 19 5 26 -1 44 -40 16 -31 32 -48
52 -56 28 -9 29 -11 14 -28 -10 -10 -17 -24 -17 -31 0 -16 49 -33 77 -26 29 7
45 -23 21 -39 -15 -9 -15 -12 0 -35 10 -13 47 -91 83 -173 l67 -149 -96 -44
c-52 -25 -96 -45 -96 -45 -1 0 0 29 2 64 3 43 -1 81 -12 112 -11 32 -13 51 -6
58 28 28 -10 148 -52 162 -11 3 -18 15 -18 30 0 21 -22 78 -37 94 -2 2 -8 -2
-12 -9 -6 -9 -15 -2 -32 28 -12 23 -34 48 -47 57 l-24 16 7 -42 7 -41 -45 34
c-39 30 -111 56 -123 44 -2 -2 9 -22 26 -45 38 -52 38 -67 3 -49 -49 25 -213
30 -213 7 0 -3 22 -17 50 -30 41 -19 104 -69 89 -71 -2 0 -21 -2 -41 -4 -20
-2 -50 -10 -65 -18 -15 -8 -39 -17 -53 -21 -14 -3 -34 -13 -45 -21 -17 -14
-18 -17 -5 -25 8 -5 28 -10 43 -10 30 0 101 -32 113 -51 4 -7 -18 -34 -52 -65
-33 -29 -57 -54 -54 -55 3 -1 41 -7 85 -13 l80 -11 -55 -40 -55 -40 78 -3 c77
-3 77 -3 63 -25 -8 -12 -17 -33 -21 -46 -6 -21 -5 -23 11 -16 31 13 94 23 94
15 0 -4 -7 -13 -15 -20 -28 -23 -17 -33 31 -26 27 3 54 1 67 -5 20 -11 19 -12
-15 -30 -40 -20 -56 -52 -39 -73 9 -11 -7 -29 -72 -84 -96 -81 -186 -175 -188
-194 -2 -20 -2 -20 5 -65 6 -40 5 -43 -16 -43 -13 0 -30 5 -38 10 -13 8 -12
10 3 10 9 0 17 5 17 10 0 6 -8 10 -18 10 -22 0 -42 51 -42 109 0 28 -5 44 -15
48 -23 8 -27 0 -27 -61 -1 -48 -4 -56 -19 -56 -17 0 -19 8 -19 68 0 90 -11
173 -21 166 -5 -3 -6 1 -3 9 7 20 -21 40 -46 32 -32 -10 -41 -40 -48 -154 -6
-96 -9 -106 -27 -109 -29 -3 -45 11 -49 44 -13 102 -28 144 -50 144 -19 0 -22
-12 -37 -123 -7 -53 -16 -102 -20 -109 -11 -17 -41 22 -78 98 -49 101 -66 110
-223 119 -131 7 -134 7 -181 42 -26 19 -59 38 -75 42 -15 4 -27 12 -28 17 -3
30 -26 65 -41 62 -14 -2 -18 6 -21 50 -3 43 0 56 16 70 88 76 279 279 336 355
57 77 137 224 156 286 22 69 26 183 10 227 -32 83 -171 122 -372 104z m-15
-356 c56 -28 66 -48 52 -109 -7 -29 -25 -76 -41 -104 -30 -57 -159 -214 -178
-219 -7 -1 -22 26 -36 65 -31 88 -75 163 -139 236 -56 64 -59 72 -33 80 119
36 192 56 217 60 69 9 128 6 158 -9z m1316 -928 c6 -25 11 -82 11 -128 l0 -83
-62 0 c-35 0 -91 -3 -124 -7 l-62 -7 -10 39 -10 39 71 63 c94 83 149 127 163
127 7 1 17 -19 23 -43z m2438 -42 c-3 -3 -12 -4 -19 -1 -8 3 -5 6 6 6 11 1 17
-2 13 -5z"/>
<path d="M438 5103 c7 -3 16 -2 19 1 4 3 -2 6 -13 5 -11 0 -14 -3 -6 -6z"/>
</g>
</svg>
