<?xml version="1.0" standalone="no"?>
<!DOCTYPE svg PUBLIC "-//W3C//DTD SVG 20010904//EN"
 "http://www.w3.org/TR/2001/REC-SVG-20010904/DTD/svg10.dtd">
<svg version="1.0" xmlns="http://www.w3.org/2000/svg"
 width="860.000000pt" height="691.000000pt" viewBox="0 0 860.000000 691.000000"
 preserveAspectRatio="xMidYMid meet">

<g transform="translate(0.000000,691.000000) scale(0.100000,-0.100000)"
fill="#000000" stroke="none">
<path d="M3944 6445 c-10 -8 -14 -15 -8 -15 6 0 17 7 24 15 16 19 9 19 -16 0z"/>
<path d="M4045 6452 c6 -6 24 -13 40 -17 21 -4 25 -3 15 3 -24 15 -67 26 -55
14z"/>
<path d="M3883 6401 c-33 -27 -28 -35 7 -14 17 9 30 21 30 25 0 13 -13 9 -37
-11z"/>
<path d="M4148 6401 c18 -12 36 -21 40 -21 19 0 195 -195 212 -236 26 -59 54
-99 123 -175 67 -74 63 -69 113 -139 30 -42 34 -52 19 -46 -265 105 -445 113
-654 32 -51 -21 -95 -35 -97 -34 -2 2 4 26 12 53 16 55 12 106 -12 126 -11 9
-13 23 -9 50 6 32 3 42 -19 64 -28 28 -51 24 -109 -17 -27 -19 -30 -20 -39 -5
-5 10 -16 17 -23 17 -20 0 -19 7 9 76 39 94 63 135 103 177 21 22 29 35 18 29
-25 -13 -63 -53 -104 -111 -35 -50 -48 -40 -38 31 7 52 0 68 -27 67 -17 -1
-18 -2 -3 -6 15 -4 17 -11 11 -36 -10 -45 -11 -98 -2 -103 13 -8 9 -36 -13
-90 -16 -38 -32 -57 -58 -72 -20 -11 -63 -46 -96 -76 -33 -31 -64 -56 -70 -56
-6 0 -15 -4 -20 -9 -6 -5 -21 -12 -34 -16 l-24 -7 6 103 5 104 -13 -75 c-8
-41 -14 -90 -14 -108 -1 -27 -7 -35 -33 -47 -28 -12 -29 -14 -11 -15 l23 0
-29 -57 c-28 -56 -44 -107 -97 -313 -13 -52 -32 -120 -41 -150 -9 -30 -18 -62
-20 -70 -4 -13 -6 -12 -14 3 -14 23 -92 23 -195 -2 -43 -11 -108 -22 -143 -25
-60 -6 -63 -5 -58 14 7 29 -8 25 -21 -5 -7 -14 -12 -28 -12 -31 0 -8 135 7
220 23 41 8 103 17 137 20 57 4 63 3 78 -21 21 -31 15 -63 -20 -104 -14 -17
-25 -38 -25 -48 0 -22 -30 -74 -61 -105 -18 -18 -21 -29 -16 -70 3 -26 16 -71
28 -99 19 -44 20 -54 9 -75 -8 -15 -22 -25 -35 -25 -11 0 -44 -6 -73 -14 -48
-12 -53 -12 -47 3 17 40 16 44 -4 16 -26 -37 -28 -60 -3 -50 28 11 96 21 115
17 21 -4 22 -21 1 -50 -9 -13 -14 -25 -12 -27 2 -2 51 68 108 156 58 88 110
167 116 176 10 15 16 13 53 -16 50 -40 69 -66 116 -159 l36 -72 -148 -227
-148 -227 -7 65 c-10 103 -90 249 -136 249 -9 0 -11 7 -7 23 4 12 -14 -9 -39
-48 -25 -38 -46 -72 -46 -75 0 -3 14 -11 31 -19 29 -13 71 -66 96 -125 18 -39
16 -88 -7 -176 -23 -92 -66 -175 -166 -325 -58 -87 -85 -119 -115 -135 -39
-19 -39 -20 -29 -1 5 11 15 23 21 27 18 11 157 201 198 273 113 192 124 326
33 400 -20 17 -44 31 -54 31 -9 0 -18 7 -20 16 -2 10 -24 -19 -56 -71 l-52
-87 25 -20 c29 -23 32 -58 7 -81 -19 -18 -62 -23 -62 -8 0 4 5 22 11 40 6 18
9 34 6 37 -10 10 -38 -44 -43 -82 -6 -51 -84 -208 -156 -316 -59 -88 -158
-185 -178 -173 -9 6 -12 -3 -8 -22 0 -5 9 -7 20 -5 28 5 23 -34 -8 -63 -22
-20 -30 -23 -47 -13 -16 8 -23 7 -34 -8 -33 -45 10 -94 82 -94 49 0 126 46
218 129 83 77 70 46 -21 -46 -89 -92 -165 -130 -235 -119 -50 8 -90 34 -82 54
9 25 -18 -3 -39 -40 -10 -18 -13 -27 -5 -20 19 18 35 15 59 -10 15 -17 37 -24
83 -29 87 -8 140 9 210 71 31 29 57 48 57 44 0 -4 -49 -82 -109 -173 -211
-323 -250 -385 -246 -389 8 -9 25 11 71 81 26 39 102 155 169 257 67 102 156
239 199 305 43 66 118 182 167 257 49 75 89 141 89 147 0 6 4 11 9 11 5 0 14
14 21 31 7 17 19 36 26 43 7 7 30 42 53 79 66 108 91 128 91 71 0 -13 5 -24
11 -24 7 0 9 -10 5 -27 -4 -16 -11 -64 -15 -108 -5 -44 -12 -104 -16 -132 -7
-47 -6 -53 11 -53 10 0 52 22 93 50 74 48 127 74 184 91 24 7 30 4 39 -17 8
-17 8 -34 0 -61 -11 -36 -7 -94 13 -211 9 -50 31 -38 89 48 51 75 86 100 86
62 0 -10 3 -22 7 -26 4 -4 9 -19 11 -33 6 -46 33 -86 108 -161 76 -75 82 -82
63 -82 -6 0 -25 -7 -42 -15 -18 -8 -54 -23 -82 -34 -78 -31 -32 -24 67 10 l90
30 61 -58 c103 -98 213 -151 360 -173 112 -17 283 -8 357 18 124 44 161 70
303 214 114 116 142 139 160 134 12 -3 28 -1 35 3 10 6 4 10 -17 14 -37 8 -38
15 -9 70 15 31 22 67 26 134 6 108 -3 102 152 103 135 1 102 19 -42 23 l-99 2
-26 70 c-14 39 -27 91 -30 117 -4 43 -3 48 24 61 40 22 89 76 107 119 45 106
-17 262 -112 283 -17 3 -36 12 -42 20 -6 7 -15 64 -20 126 -6 63 -15 158 -21
213 -5 54 -8 100 -6 102 2 2 17 -2 32 -10 15 -8 48 -21 73 -28 39 -11 57 -28
151 -141 58 -70 107 -134 109 -141 2 -7 -15 -18 -40 -26 -67 -21 -98 -39 -98
-56 0 -9 13 -33 29 -53 57 -72 101 -147 120 -203 11 -32 31 -73 45 -90 l25
-33 -85 2 c-46 1 -88 4 -93 7 -12 8 -41 -21 -41 -41 0 -9 6 -34 13 -57 l12
-41 5 54 5 54 90 -2 c110 -2 128 6 102 46 -10 15 -38 70 -63 122 -25 52 -66
121 -90 155 -24 33 -44 65 -44 71 0 6 32 22 72 37 l72 27 33 -25 c18 -13 41
-36 50 -50 51 -72 211 -265 298 -358 17 -18 39 -45 50 -61 45 -65 500 -601
559 -660 23 -22 48 -54 56 -70 8 -17 16 -33 18 -37 5 -10 -112 -10 -122 0 -4
4 -69 15 -144 24 -75 10 -256 33 -402 53 -146 19 -345 44 -443 56 -160 18
-179 19 -193 5 -14 -15 -10 -16 40 -16 49 0 56 -2 56 -20 0 -25 47 -50 83 -43
45 9 39 18 -11 18 -41 0 -47 3 -50 23 -3 16 1 22 15 21 10 0 13 -3 6 -6 -7 -2
-13 -9 -13 -14 0 -11 36 -12 58 0 21 10 161 -4 175 -18 11 -11 12 -11 -138
-38 -55 -9 -92 -19 -83 -21 15 -3 170 21 225 35 19 4 23 1 23 -20 0 -16 -7
-28 -17 -31 -188 -55 -363 -90 -376 -77 -17 17 2 59 30 69 25 9 25 11 6 11
-26 1 -51 -22 -59 -55 -4 -16 -13 -24 -28 -24 -20 0 -68 -30 -164 -102 -40
-30 -43 -31 -59 -15 -16 15 -16 19 -1 51 9 18 49 60 90 93 61 50 76 58 91 49
12 -8 22 -8 35 0 23 15 28 52 8 60 -9 3 -16 12 -16 20 0 24 -14 15 -31 -19 -8
-18 -50 -58 -92 -90 -81 -61 -123 -120 -110 -154 17 -47 48 -43 125 15 87 67
103 74 164 73 59 0 213 27 334 60 l80 21 0 37 c0 20 -5 42 -12 49 -10 10 -6
11 17 7 17 -3 84 -12 150 -20 66 -8 170 -21 230 -29 61 -9 118 -16 128 -16 26
0 21 -19 -8 -30 -34 -13 -40 -32 -21 -68 25 -48 60 -54 106 -20 34 25 44 19
46 -25 2 -32 42 -77 69 -77 8 0 20 -9 28 -20 7 -10 24 -24 38 -30 13 -5 32
-16 41 -22 14 -10 21 -10 35 4 14 15 15 21 4 41 -9 17 -9 30 -1 51 14 38 3 90
-26 117 -13 12 -21 26 -18 30 10 16 128 -3 151 -24 27 -24 42 -16 22 12 -14
20 -195 234 -598 709 -127 150 -229 278 -225 283 3 5 -6 23 -20 40 -14 17 -26
37 -26 44 0 20 51 1 81 -31 32 -34 45 -30 19 6 -38 53 -98 74 -130 45 -16 -14
-19 -13 -34 10 -9 14 -12 25 -6 25 20 0 9 22 -34 65 -37 37 -42 46 -30 56 21
17 17 31 -16 69 -28 33 -31 34 -44 17 -8 -11 -24 -17 -37 -15 -30 4 -36 26 -8
30 12 2 26 10 32 18 7 13 -6 31 -63 85 -39 39 -78 71 -86 73 -23 5 -16 -20 13
-50 19 -20 24 -31 16 -39 -7 -7 -33 17 -88 83 -74 87 -83 95 -154 123 -125 50
-221 130 -310 259 -63 91 -83 154 -89 280 l-5 109 -57 86 c-32 47 -95 128
-139 179 -76 87 -136 182 -129 203 2 5 26 -2 53 -15 58 -27 151 -116 279 -266
50 -58 96 -111 103 -119 20 -23 28 -4 9 23 -22 35 -146 177 -220 254 -64 66
-60 80 12 43 44 -22 98 -80 202 -213 73 -94 90 -110 90 -87 0 12 -130 180
-183 236 -17 18 -28 35 -25 39 25 24 161 -99 220 -198 42 -71 58 -89 58 -66 0
22 -67 129 -106 168 -41 43 -42 50 -9 50 29 0 105 -70 150 -139 l28 -42 -30
-32 c-65 -68 -89 -164 -56 -226 10 -19 23 -33 28 -32 6 0 10 42 10 99 0 92 2
101 28 135 16 21 33 35 38 31 6 -4 2 -15 -10 -28 -25 -26 -26 -36 -6 -36 19 0
20 -34 2 -49 -10 -8 -17 -7 -26 2 -11 10 -12 -6 -9 -85 6 -119 36 -189 101
-239 61 -47 65 -52 37 -44 -21 7 -22 6 -10 -6 33 -31 102 -72 132 -78 21 -4
34 -14 37 -26 4 -21 14 -34 132 -168 56 -63 76 -94 75 -112 -1 -28 -10 -30
-46 -10 -14 8 -31 14 -37 15 -26 0 -12 -17 31 -37 40 -20 43 -24 42 -60 -1
-36 1 -38 31 -41 17 -2 46 4 63 13 18 9 33 15 33 13 1 -2 17 -20 36 -40 42
-45 36 -56 -12 -28 -45 27 -91 24 -95 -7 -2 -13 5 -27 20 -37 33 -23 43 -20
24 9 -15 22 -15 25 -1 25 9 0 33 -9 55 -20 34 -17 39 -18 42 -4 2 12 8 10 27
-10 l24 -26 -31 0 c-27 0 -32 -4 -32 -23 0 -21 36 -67 53 -67 4 0 1 14 -8 30
-17 33 -11 36 32 18 52 -22 82 -58 48 -58 -20 0 -47 -43 -39 -63 3 -9 14 -19
25 -22 10 -4 22 -17 25 -30 10 -39 55 -43 95 -8 14 11 26 1 103 -87 85 -98
106 -118 87 -82 -8 15 -154 182 -255 292 -18 19 -72 82 -120 140 -48 58 -116
135 -149 171 -34 37 -75 84 -92 104 -16 21 -38 47 -47 57 -42 42 0 77 62 51
19 -8 37 -18 38 -23 2 -6 12 -10 23 -10 16 0 17 3 7 19 -7 11 -15 18 -19 15
-4 -2 -27 5 -50 17 -33 18 -45 20 -60 11 -30 -19 -44 -14 -76 26 -25 31 -31
49 -35 107 -4 48 -20 109 -50 191 l-44 122 28 -10 c15 -6 28 -14 28 -18 0 -4
8 -11 18 -14 10 -4 6 4 -10 18 -16 14 -28 32 -28 40 0 45 185 156 259 156 21
0 41 3 44 7 7 7 -22 32 -38 33 -5 0 -3 -5 5 -10 11 -7 5 -10 -22 -10 -21 0
-38 -4 -38 -8 0 -4 -20 -14 -45 -21 -43 -13 -195 -124 -195 -143 0 -4 -4 -8
-10 -8 -5 0 -10 5 -10 11 0 18 -71 130 -103 164 -16 16 -48 55 -70 85 -22 30
-56 72 -75 93 l-36 37 34 1 c34 1 34 1 -11 12 -33 9 -64 28 -109 70 -72 66
-106 79 -40 15 44 -42 44 -43 19 -46 -14 -2 -48 8 -74 22 -26 15 -57 26 -69
26 -12 0 -45 9 -74 20 -29 11 -61 20 -73 20 -11 0 -50 16 -86 35 -36 19 -76
35 -88 35 -30 0 -61 38 -68 84 -4 22 -12 43 -18 47 -8 5 -6 9 7 12 15 4 15 5
-5 6 -21 1 -23 -2 -17 -34 4 -19 4 -35 1 -35 -3 0 -36 20 -73 44 -37 24 -78
47 -92 51 -21 5 -20 3 8 -14z m257 -570 c106 -20 180 -46 258 -89 46 -26 48
-29 45 -66 l-3 -39 -85 -27 c-88 -28 -137 -50 -230 -105 -30 -18 -77 -40 -103
-50 -55 -21 -79 -16 -208 40 -83 36 -181 55 -289 55 -70 0 -71 0 -59 23 7 12
37 51 68 86 44 50 71 71 126 96 85 39 151 61 236 80 88 19 128 18 244 -4z
m745 -51 c0 -5 -2 -10 -4 -10 -3 0 -8 5 -11 10 -3 6 -1 10 4 10 6 0 11 -4 11
-10z m10 -66 c0 -14 -4 -23 -10 -19 -5 3 -10 15 -10 26 0 10 5 19 10 19 6 0
10 -12 10 -26z m35 -17 c4 -17 25 -63 46 -101 22 -38 38 -71 35 -73 -16 -16
-106 153 -106 199 0 29 18 12 25 -25z m-100 -7 c8 -13 -12 -40 -29 -40 -6 0
-13 11 -14 25 -1 19 3 25 18 25 10 0 22 -5 25 -10z m90 -57 c5 -17 2 -23 -10
-23 -19 0 -30 24 -21 47 8 19 21 9 31 -24z m-77 -39 c4 -28 -26 -54 -39 -33
-5 8 -9 24 -9 37 0 19 5 23 23 20 13 -2 23 -11 25 -24z m-394 -46 c8 -61 3
-68 -78 -94 -48 -16 -140 -66 -281 -152 -50 -30 -72 -37 -126 -40 -59 -4 -77
0 -155 33 -118 49 -192 70 -298 85 l-88 12 6 37 c4 20 9 48 12 64 l6 27 96 0
c114 0 197 -18 296 -63 54 -24 85 -32 131 -32 55 0 69 5 180 66 117 65 189 94
250 102 17 2 33 5 36 6 4 0 10 -22 13 -51z m505 21 c10 -17 10 -23 0 -29 -14
-9 -39 -2 -39 10 0 15 12 40 19 40 3 0 12 -10 20 -21z m-101 -41 c15 -15 15
-45 0 -54 -13 -8 -38 22 -38 48 0 21 20 24 38 6z m150 -23 c11 -14 24 -25 30
-25 13 0 23 -38 11 -46 -14 -8 -29 5 -29 27 0 14 -7 19 -24 19 -29 0 -39 12
-30 34 9 22 19 20 42 -9z m-85 -47 c7 -20 -4 -38 -22 -38 -20 0 -41 19 -41 37
0 17 57 17 63 1z m-433 -22 c0 -29 106 -175 178 -244 l75 -74 13 -111 c14
-122 49 -554 59 -736 l6 -114 -24 16 c-24 15 -120 47 -144 47 -33 0 -8 -19 40
-31 78 -18 122 -52 154 -118 26 -52 28 -65 28 -181 0 -117 -2 -129 -28 -183
-35 -71 -124 -169 -186 -204 -59 -34 -58 -33 -41 -44 35 -22 -141 -133 -256
-163 -78 -20 -256 -21 -357 -2 -72 14 -236 80 -225 91 3 3 17 1 32 -5 72 -27
58 4 -14 33 -70 29 -162 91 -240 164 -109 100 -142 166 -141 279 1 104 47 165
159 209 39 16 56 35 31 35 -18 0 -133 -60 -156 -82 -26 -25 -20 -38 -67 137
-51 191 -92 358 -112 457 -15 82 -16 89 0 113 19 28 43 36 28 8 -12 -21 5 -76
21 -66 6 4 8 0 4 -10 -10 -26 42 -118 97 -172 68 -66 132 -90 246 -90 67 0 95
5 135 23 58 27 145 114 145 146 0 12 9 28 20 36 14 10 18 22 15 47 -2 18 0 33
4 33 17 0 22 124 8 195 -25 127 -81 199 -197 253 -49 23 -67 26 -166 25 -82 0
-118 -4 -140 -16 -16 -9 -37 -19 -46 -23 -10 -3 -18 -10 -18 -15 0 -5 8 -6 18
-3 9 2 7 -1 -5 -7 -12 -6 -29 -26 -38 -43 l-16 -31 5 30 c3 17 10 93 17 170 6
77 13 141 14 143 4 5 135 -17 205 -35 36 -8 108 -33 160 -53 52 -21 114 -41
137 -45 60 -9 133 15 228 75 100 64 161 96 250 131 71 27 85 28 85 5z m485
-29 c18 -14 13 -37 -8 -37 -7 0 -21 7 -32 16 -17 13 -18 16 -5 24 20 13 23 12
45 -3z m-1445 -277 c-8 -5 -19 -10 -25 -10 -5 0 -3 5 5 10 8 5 20 10 25 10 6
0 3 -5 -5 -10z m277 -36 c229 -111 228 -442 -2 -555 -211 -103 -449 44 -449
278 -1 230 241 379 451 277z m1573 -206 c0 -5 -4 -8 -10 -8 -10 0 -60 73 -60
87 0 10 69 -69 70 -79z m-36 -19 c-6 -10 -38 -12 -47 -3 -3 4 -2 15 4 26 10
19 12 19 30 2 10 -9 16 -21 13 -25z m-153 -29 l24 -19 -26 -1 c-27 0 -54 21
-42 33 10 11 19 8 44 -13z m-1860 -143 c-10 -9 -11 -8 -5 6 3 10 9 15 12 12 3
-3 0 -11 -7 -18z m1973 15 c2 -4 -7 -12 -20 -19 -26 -12 -32 -5 -12 15 14 14
25 15 32 4z m-1934 -114 c-7 -19 -9 -20 -11 -5 -3 27 -4 31 -12 44 -4 6 -1 13
5 16 18 6 29 -29 18 -55z m-122 -6 c17 -83 16 -87 -28 -116 -142 -94 -96 -336
77 -405 18 -7 44 -11 57 -7 22 5 26 2 40 -46 14 -47 13 -57 -1 -111 -9 -33
-23 -61 -30 -64 -8 -3 -35 -35 -60 -70 -41 -58 -47 -63 -57 -46 -6 10 -12 73
-13 140 -1 67 -4 127 -8 133 -18 28 -114 -1 -216 -66 -116 -73 -108 -74 -92 9
10 48 13 113 10 195 l-4 124 118 181 c116 178 129 193 189 206 4 0 11 -25 18
-57z m2432 -45 c0 -15 -68 47 -69 62 -1 9 13 1 34 -19 19 -19 35 -38 35 -43z
m-774 28 c33 -21 55 -68 61 -130 7 -69 -23 -135 -81 -177 l-41 -29 -6 38 c-4
21 -10 104 -13 185 l-7 147 32 -9 c17 -5 42 -16 55 -25z m689 5 c3 -5 1 -10
-4 -10 -6 0 -11 5 -11 10 0 6 2 10 4 10 3 0 8 -4 11 -10z m-2185 -30 c-6 -11
-13 -20 -16 -20 -2 0 0 9 6 20 6 11 13 20 16 20 2 0 0 -9 -6 -20z m50 -15 c0
-12 -19 -12 -23 0 -4 9 -1 12 9 8 7 -3 14 -7 14 -8z m2188 3 c18 -18 15 -28
-8 -28 -13 0 -20 7 -20 20 0 23 10 26 28 8z m-2100 -56 c2 -7 -1 -12 -8 -12
-6 0 -9 4 -6 9 4 5 1 12 -4 14 -6 3 -5 4 2 3 6 -1 14 -8 16 -14z m277 1 c5
-15 4 -16 -6 -5 -18 17 -34 15 -19 -3 16 -19 1 -19 -23 -1 -18 14 -18 14 0 19
33 9 41 7 48 -10z m-315 -3 c0 -5 -7 -10 -16 -10 -8 0 -12 5 -9 10 3 6 10 10
16 10 5 0 9 -4 9 -10z m-192 -162 c23 -90 45 -176 48 -192 l7 -29 -47 5 c-58
7 -107 49 -142 123 -29 60 -30 106 -5 161 16 35 73 94 92 94 3 0 25 -73 47
-162z m307 152 c-3 -5 -13 -10 -21 -10 -8 0 -12 5 -9 10 3 6 13 10 21 10 8 0
12 -4 9 -10z m94 -6 c-11 -13 -9 -14 14 -9 22 6 26 4 21 -8 -3 -9 -14 -13 -27
-10 -18 4 -19 3 -7 -7 12 -9 0 -10 -53 -7 -37 3 -73 9 -80 15 -6 5 -19 12 -27
15 -8 2 -1 2 15 0 17 -3 39 -6 50 -7 11 0 23 -4 26 -8 3 -5 14 -1 25 8 19 15
19 16 -1 9 -13 -4 -16 -3 -10 3 9 9 33 17 59 21 5 0 3 -6 -5 -15z m-1009 -325
c0 -24 -54 -129 -64 -126 -25 8 -18 93 10 121 18 18 54 21 54 5z m-212 -71
c24 -50 -23 -104 -73 -85 -13 5 -13 11 0 48 27 74 49 86 73 37z m130 -81 c8
-9 3 -26 -20 -62 l-31 -49 -18 23 c-38 47 -17 87 52 100 4 0 11 -5 17 -12z
m-204 -33 c13 -33 6 -73 -13 -84 -23 -12 -64 -14 -59 -2 26 54 53 102 59 102
4 0 10 -7 13 -16z m136 -95 c0 -6 -16 -34 -36 -61 -27 -36 -39 -46 -45 -36
-13 19 -11 36 7 74 13 27 22 34 45 34 16 0 29 -5 29 -11z m-220 -68 c0 -30 -6
-44 -22 -55 -23 -16 -58 -22 -58 -9 0 11 64 102 73 103 4 0 7 -18 7 -39z m126
-56 c4 -12 -72 -102 -79 -95 -3 3 -8 16 -12 30 -9 36 28 82 63 78 14 -2 27 -7
28 -13z m-227 -63 c-15 -39 -29 -52 -55 -52 -32 0 -30 8 13 52 40 41 58 42 42
0z m111 -52 c12 -8 8 -16 -25 -45 -22 -19 -43 -34 -47 -35 -13 0 -9 65 4 78
14 14 47 15 68 2z m-106 -99 c6 -9 -66 -61 -84 -61 -17 0 -11 22 12 47 21 23
62 31 72 14z m2630 -6 c-4 -8 -10 -15 -15 -15 -5 0 -9 7 -9 15 0 8 7 15 15 15
9 0 12 -6 9 -15z m1154 -35 c45 0 41 -24 -7 -40 -41 -13 -61 -8 -61 16 0 8
-10 19 -22 25 -19 8 -15 9 17 4 22 -2 55 -5 73 -5z m-109 -24 c8 -10 9 -16 1
-21 -5 -3 -10 -15 -10 -26 0 -10 -2 -19 -4 -19 -2 0 -11 -3 -19 -6 -21 -8 -17
27 6 47 23 22 22 33 -3 26 -11 -3 -18 -1 -14 4 8 13 30 11 43 -5z m-69 -21
c-7 -9 -15 -13 -17 -11 -7 7 7 26 19 26 6 0 6 -6 -2 -15z m140 -21 c0 -2 -12
-4 -26 -4 -14 0 -23 4 -20 9 6 8 46 4 46 -5z m171 -13 c29 -35 23 -41 -18 -19
-27 13 -53 18 -90 16 -47 -3 -50 -2 -41 16 15 28 124 19 149 -13z m-48 -34
c42 -18 61 -42 51 -64 -7 -16 -8 -15 -11 5 -4 21 -23 32 -23 13 0 -17 -26 -19
-75 -6 -52 13 -64 27 -45 50 15 19 61 19 103 2z"/>
<path d="M4146 5773 c-3 -3 -6 -28 -6 -55 0 -42 -3 -50 -24 -60 -14 -6 -32 -8
-40 -5 -20 8 -21 37 -1 37 8 0 15 5 15 10 0 6 -4 10 -9 10 -15 0 -33 -28 -29
-47 3 -15 14 -18 60 -18 49 -1 58 2 63 20 5 19 6 19 19 2 13 -16 21 -18 60 -9
29 6 48 6 54 0 13 -13 32 -2 32 18 0 8 5 14 10 14 6 0 10 -7 10 -15 0 -8 9
-15 19 -15 13 0 23 -11 31 -35 15 -45 30 -45 30 -1 0 37 23 54 47 35 11 -10
11 -14 -2 -29 -22 -24 -5 -33 43 -25 38 6 70 41 87 95 l8 25 -26 -27 c-28 -30
-47 -36 -47 -15 -1 7 -7 4 -15 -7 -20 -26 -45 -13 -45 23 0 27 4 31 38 36 65
11 68 13 20 14 -25 0 -53 4 -62 7 -12 5 -16 -1 -16 -24 0 -45 -10 -65 -25 -52
-9 7 -11 25 -8 50 4 26 2 40 -6 40 -6 0 -11 -8 -11 -19 0 -32 -22 -81 -36 -81
-8 0 -14 10 -14 24 0 20 -4 22 -26 18 -16 -3 -23 -9 -20 -18 7 -19 -4 -17 -19
3 -11 15 -13 15 -19 -5 -9 -26 -26 -29 -27 -4 0 13 -3 12 -11 -5 -14 -28 -24
-29 -40 -3 -7 11 -18 20 -25 20 -8 0 -13 13 -13 34 0 34 -11 52 -24 39z m422
-129 c-11 -11 -23 -14 -35 -9 -17 7 -17 8 2 15 11 5 27 9 35 9 12 1 11 -2 -2
-15z"/>
<path d="M3880 5722 c-33 -26 -17 -42 41 -42 63 0 96 -15 78 -36 -7 -9 -31
-14 -65 -14 -41 0 -56 4 -67 20 -13 18 -27 18 -27 -1 0 -41 133 -56 170 -19
11 11 17 26 14 34 -8 20 -69 39 -99 32 -29 -7 -41 7 -20 24 9 8 27 10 46 6 18
-3 28 -2 24 4 -10 17 -71 11 -95 -8z"/>
<path d="M4661 5274 c0 -11 3 -14 6 -6 3 7 2 16 -1 19 -3 4 -6 -2 -5 -13z"/>
<path d="M4592 5224 c-78 -17 -127 -42 -171 -88 -39 -41 -51 -45 -51 -17 0 11
-4 22 -9 26 -6 3 -5 -10 1 -32 8 -31 6 -43 -13 -82 -28 -55 -37 -160 -19 -229
20 -81 135 -242 173 -242 8 0 7 -4 -2 -9 -12 -8 -12 -30 -1 -150 13 -156 10
-197 -21 -229 -29 -32 -69 -28 -107 11 -36 37 -61 102 -87 230 -12 60 -23 87
-32 87 -9 0 -12 -7 -9 -17 3 -10 12 -57 22 -104 29 -153 99 -259 170 -259 13
0 38 13 56 29 l33 29 0 114 c0 62 -4 143 -8 181 -6 57 -5 67 8 67 8 0 15 -4
15 -9 0 -4 34 -16 75 -26 161 -38 302 22 360 151 21 47 23 62 18 180 -4 110
-8 137 -29 183 -25 56 -102 160 -118 161 -5 0 -17 6 -25 13 -13 12 -56 23
-151 41 -8 2 -43 -3 -78 -10z m172 -44 c67 -26 138 -87 165 -143 103 -213 -27
-441 -259 -455 -135 -7 -242 56 -299 177 -35 76 -36 182 -2 259 30 67 111 143
177 165 68 22 152 21 218 -3z m223 -402 c-3 -8 -6 -5 -6 6 -1 11 2 17 5 13 3
-3 4 -12 1 -19z m-43 -87 c-14 -22 -23 -45 -19 -50 3 -6 1 -11 -4 -11 -6 0
-11 6 -11 13 0 13 47 87 56 87 2 0 -7 -18 -22 -39z m-39 -71 c3 -5 2 -10 -4
-10 -5 0 -13 5 -16 10 -3 6 -2 10 4 10 5 0 13 -4 16 -10z m-65 -40 c-8 -6 -22
-10 -30 -10 -8 0 -4 6 10 13 27 15 44 12 20 -3z m-83 -32 c-4 -15 -91 -19
-122 -6 -12 5 5 6 43 3 37 -3 62 -1 62 5 0 6 5 10 11 10 6 0 9 -6 6 -12z"/>
<path d="M4661 4906 c-18 -22 -9 -51 17 -54 18 -3 22 1 22 21 0 33 -23 52 -39
33z"/>
<path d="M4900 4511 c0 -6 4 -12 9 -15 5 -3 12 -34 16 -68 10 -81 26 -122 22
-55 -2 47 5 61 17 31 3 -9 6 -23 6 -32 0 -22 17 -48 25 -40 7 7 -14 87 -28
106 -7 8 -4 18 8 31 16 19 16 20 -14 35 -34 18 -61 21 -61 7z m57 -37 c-9 -9
-28 6 -21 18 4 6 10 6 17 -1 6 -6 8 -13 4 -17z"/>
<path d="M4675 4136 c-49 -18 -104 -40 -122 -49 -89 -47 -251 -53 -415 -16
-145 32 -212 23 -280 -39 -80 -72 -105 -180 -68 -300 31 -101 78 -162 179
-229 125 -83 291 -142 435 -153 125 -11 147 -7 270 47 171 75 207 107 304 273
72 122 87 209 57 325 -27 103 -118 175 -220 174 -30 0 -86 -13 -140 -33z m185
-82 c0 -12 -9 -33 -21 -48 -16 -20 -29 -26 -59 -26 -30 0 -43 6 -59 26 -12 15
-21 32 -21 40 0 14 69 42 115 46 33 3 45 -6 45 -38z m-184 -39 c8 -31 -17 -72
-53 -86 -32 -12 -54 -5 -83 26 -28 30 -22 39 46 64 68 26 82 26 90 -4z m-603
-15 c20 0 27 -5 27 -20 0 -28 -44 -70 -73 -70 -62 0 -107 84 -49 93 15 2 36 3
47 1 11 -2 32 -4 48 -4z m183 -21 c50 -13 55 -29 19 -64 -26 -27 -71 -33 -98
-12 -18 13 -39 72 -29 81 9 9 60 7 108 -5z m236 -28 c-4 -38 -31 -61 -70 -61
-62 0 -113 72 -59 83 12 3 47 4 77 3 52 -1 55 -2 52 -25z m8 -181 c0 -13 -11
-13 -30 0 -12 8 -11 10 8 10 12 0 22 -4 22 -10z m-122 -16 c-36 -15 -37 -17
-22 -39 9 -13 30 -27 47 -30 67 -13 72 -16 53 -27 -44 -25 -143 25 -134 68 4
21 43 44 73 43 13 0 7 -5 -17 -15z m556 -6 c-3 -13 -18 -45 -31 -72 -24 -47
-26 -49 -39 -31 -35 47 -1 125 54 125 20 0 22 -4 16 -22z m-954 -88 c25 -13
42 -67 29 -91 -5 -10 -13 -19 -18 -19 -15 0 -102 100 -96 110 8 13 61 13 85 0z
m877 -36 c7 -19 -31 -69 -74 -95 l-36 -22 -18 22 c-22 27 -23 41 -7 77 17 36
62 55 101 42 16 -6 31 -17 34 -24z m-703 -45 c20 -16 26 -29 26 -60 0 -53 -18
-58 -88 -23 -64 32 -74 52 -41 83 29 27 69 27 103 0z m530 -50 c14 -11 26 -25
26 -30 0 -13 -69 -45 -112 -52 -36 -5 -38 -4 -38 22 0 30 15 53 45 69 30 17
49 14 79 -9z m-374 -14 c30 -16 48 -54 35 -75 -5 -8 -24 -9 -59 -5 -90 13
-108 36 -60 74 32 25 46 26 84 6z m194 -26 c40 -31 34 -56 -14 -64 -47 -8
-120 2 -120 17 0 19 59 68 83 68 13 0 36 -9 51 -21z"/>
<path d="M3910 4805 c0 -31 2 -34 23 -26 23 9 25 39 4 53 -22 14 -27 8 -27
-27z"/>
<path d="M4625 6290 c3 -5 14 -10 23 -10 15 0 15 2 2 10 -20 13 -33 13 -25 0z"/>
<path d="M4699 6249 c18 -11 35 -18 38 -15 5 5 -50 36 -64 36 -4 0 7 -9 26
-21z"/>
<path d="M3499 6243 c-13 -15 -12 -15 9 -4 23 12 28 21 13 21 -5 0 -15 -7 -22
-17z"/>
<path d="M4782 6194 c10 -10 20 -16 22 -13 3 3 -5 11 -17 18 -21 13 -21 12 -5
-5z"/>
<path d="M3403 6148 c-15 -21 -33 -68 -25 -68 4 1 15 17 24 37 18 38 18 54 1
31z"/>
<path d="M5210 5980 c30 -10 64 -19 75 -19 33 1 -33 26 -85 32 l-45 6 55 -19z"/>
<path d="M5318 5953 c7 -3 16 -2 19 1 4 3 -2 6 -13 5 -11 0 -14 -3 -6 -6z"/>
<path d="M2988 5663 c-14 -16 -33 -41 -43 -58 -14 -25 -12 -24 19 10 35 38 61
75 53 75 -2 0 -15 -12 -29 -27z"/>
<path d="M2895 5538 c-17 -29 -17 -31 -1 -19 21 17 40 51 29 51 -5 0 -17 -15
-28 -32z"/>
<path d="M5371 5544 c0 -11 3 -14 6 -6 3 7 2 16 -1 19 -3 4 -6 -2 -5 -13z"/>
<path d="M5010 5536 c0 -8 4 -17 9 -20 5 -4 7 3 4 14 -6 23 -13 26 -13 6z"/>
<path d="M5383 5485 c6 -19 12 -33 14 -32 6 7 -9 67 -17 67 -5 0 -3 -16 3 -35z"/>
<path d="M2864 5488 c-4 -7 -15 -24 -23 -38 -10 -15 -11 -21 -3 -16 13 7 46
66 38 66 -3 0 -8 -6 -12 -12z"/>
<path d="M2798 5383 c-8 -15 -25 -46 -38 -68 -13 -22 -18 -35 -11 -28 8 6 18
20 25 31 38 66 47 84 43 89 -3 2 -11 -8 -19 -24z"/>
<path d="M5520 5251 c0 -6 4 -13 10 -16 6 -3 7 1 4 9 -7 18 -14 21 -14 7z"/>
<path d="M3044 5048 l-19 -23 23 19 c12 11 22 21 22 23 0 8 -8 2 -26 -19z"/>
<path d="M2986 4974 c-14 -25 -31 -64 -36 -86 -6 -21 -14 -46 -17 -55 -4 -10
-2 -14 4 -10 6 4 16 28 23 54 7 27 24 67 37 91 14 24 23 46 20 48 -3 3 -16
-16 -31 -42z"/>
<path d="M2911 4778 c0 -9 -4 -25 -7 -35 -5 -14 -4 -15 5 -7 7 7 11 22 8 35
-2 13 -5 16 -6 7z"/>
<path d="M5616 4684 c-8 -20 30 -84 50 -84 17 0 17 5 4 31 -13 23 2 26 20 4 7
-8 20 -15 29 -15 11 0 2 14 -26 40 -45 43 -67 50 -77 24z"/>
<path d="M6170 4290 c0 -5 5 -10 11 -10 5 0 7 5 4 10 -3 6 -8 10 -11 10 -2 0
-4 -4 -4 -10z"/>
<path d="M5315 4124 c21 -51 42 -83 87 -133 34 -37 58 -51 58 -35 0 3 -21 29
-46 58 -26 28 -56 71 -68 95 -27 58 -54 70 -31 15z"/>
<path d="M6296 4147 c3 -10 9 -15 12 -12 3 3 0 11 -7 18 -10 9 -11 8 -5 -6z"/>
<path d="M6370 4062 c0 -5 7 -15 15 -22 8 -7 15 -8 15 -2 0 5 -7 15 -15 22 -8
7 -15 8 -15 2z"/>
<path d="M2594 3988 c-9 -17 -20 -36 -25 -42 -37 -44 -179 -262 -179 -274 0
-4 23 16 51 43 57 57 109 130 109 155 0 10 7 23 16 31 14 11 64 100 64 114 0
16 -22 0 -36 -27z"/>
<path d="M6420 4006 c0 -2 8 -10 18 -17 15 -13 16 -12 3 4 -13 16 -21 21 -21
13z"/>
<path d="M6475 3940 c10 -11 20 -20 23 -20 3 0 -3 9 -13 20 -10 11 -20 20 -23
20 -3 0 3 -9 13 -20z"/>
<path d="M6520 3894 c1 -13 79 -101 79 -89 0 6 -18 30 -39 54 -22 24 -40 40
-40 35z"/>
<path d="M6627 3765 c12 -16 36 -43 54 -60 l33 -30 -31 40 c-17 22 -41 49 -54
60 l-23 20 21 -30z"/>
<path d="M6720 3663 c0 -6 8 -17 18 -24 16 -13 16 -13 2 6 -8 11 -16 22 -17
24 -2 2 -3 0 -3 -6z"/>
<path d="M6770 3602 c0 -12 19 -26 26 -19 2 2 -2 10 -11 17 -9 8 -15 8 -15 2z"/>
<path d="M5196 3572 c-3 -5 5 -21 18 -36 20 -26 25 -27 45 -16 l23 12 -23 24
c-22 24 -53 32 -63 16z m38 -18 c20 -8 21 -24 2 -24 -8 0 -16 7 -20 15 -6 17
-4 18 18 9z"/>
<path d="M5283 3493 c9 -2 23 -2 30 0 6 3 -1 5 -18 5 -16 0 -22 -2 -12 -5z"/>
<path d="M6920 3431 c0 -6 4 -13 10 -16 6 -3 7 1 4 9 -7 18 -14 21 -14 7z"/>
<path d="M6980 3350 c6 -11 13 -20 16 -20 2 0 0 9 -6 20 -6 11 -13 20 -16 20
-2 0 0 -9 6 -20z"/>
<path d="M3245 3252 c-137 -60 -281 -125 -320 -144 -38 -19 -81 -39 -95 -43
-25 -7 -179 -73 -420 -178 -163 -71 -175 -75 -165 -51 4 11 9 28 12 39 4 17 2
16 -16 -5 -11 -14 -45 -64 -76 -112 -65 -101 -65 -143 0 -46 46 69 46 69 338
194 91 39 102 41 88 15 -8 -14 -2 -45 25 -127 20 -60 37 -111 40 -113 9 -9 84
-9 84 0 0 16 24 36 36 32 7 -2 11 10 10 34 -1 34 2 39 37 56 55 26 93 12 90
-32 -1 -31 0 -32 30 -25 37 8 70 28 61 37 -3 3 4 20 16 38 l23 31 -37 77 c-49
99 -64 120 -75 102 -6 -9 -11 -10 -15 -2 -4 6 -2 11 3 11 6 0 11 7 11 15 0 8
-5 15 -12 15 -37 0 6 20 435 206 82 35 156 68 165 74 15 8 15 9 -3 9 -11 1
-132 -48 -270 -107z m-467 -277 l2 -30 -16 25 c-8 14 -13 17 -10 8 3 -12 0
-18 -10 -18 -20 0 -30 30 -13 41 25 16 44 5 47 -26z m132 31 c0 -3 -4 -8 -10
-11 -5 -3 -10 -1 -10 4 0 6 5 11 10 11 6 0 10 -2 10 -4z m-39 -36 c5 0 9 -5 9
-10 0 -6 -11 -3 -25 6 -14 9 -25 21 -25 26 0 5 7 2 16 -6 8 -9 20 -16 25 -16z
m-97 -72 c30 -28 49 -31 27 -4 -8 9 -8 16 -2 20 6 4 8 21 4 39 l-6 32 26 -30
c24 -28 24 -30 6 -33 -41 -7 -16 -22 35 -22 30 0 61 -3 70 -6 30 -12 6 -21
-44 -16 -30 2 -50 0 -50 -6 0 -6 -13 -13 -29 -17 -20 -4 -45 -27 -82 -75 -30
-38 -60 -69 -66 -70 -21 0 -15 17 12 34 14 9 25 26 25 39 0 12 16 38 35 57 19
19 35 39 35 45 0 5 -7 2 -14 -7 -19 -26 -28 -22 -22 10 5 21 0 34 -23 59 -16
17 -26 35 -23 38 3 3 17 -9 31 -27 14 -18 39 -45 55 -60z m195 54 c-5 -2 -4
-12 1 -22 7 -13 7 -21 -1 -26 -20 -12 -28 11 -16 48 9 29 13 34 18 20 4 -9 2
-18 -2 -20z m-265 -17 c32 -48 16 -105 -30 -105 -38 0 -57 92 -25 117 24 18
37 16 55 -12z m311 -65 c-3 -5 -12 -7 -20 -3 -21 7 -19 13 6 13 11 0 18 -4 14
-10z m-85 -20 c12 -8 12 -10 -5 -10 -11 0 -27 5 -35 10 -12 8 -12 10 5 10 11
0 27 -5 35 -10z m-300 -16 c0 -8 -4 -12 -10 -9 -5 3 -10 10 -10 16 0 5 5 9 10
9 6 0 10 -7 10 -16z m39 -23 c8 -5 11 -16 7 -26 -5 -14 -9 -15 -21 -5 -16 13
-21 40 -7 40 4 0 13 -4 21 -9z m91 -32 c-7 -11 -14 -18 -17 -15 -3 3 0 12 7
21 18 21 23 19 10 -6z m210 -3 c0 -3 -4 -8 -10 -11 -5 -3 -10 -1 -10 4 0 6 5
11 10 11 6 0 10 -2 10 -4z m-270 -76 c0 -5 -5 -10 -11 -10 -5 0 -7 5 -4 10 3
6 8 10 11 10 2 0 4 -4 4 -10z"/>
<path d="M5090 3310 c0 -6 13 -37 29 -69 19 -36 28 -66 24 -80 -4 -14 -1 -21
7 -19 7 2 19 -20 29 -52 10 -34 22 -55 31 -55 25 0 23 43 -5 92 -27 49 -23 63
20 63 31 0 84 -37 90 -62 18 -76 41 -218 34 -218 -4 0 -26 15 -48 34 -75 63
-114 59 -86 -9 12 -27 13 -41 6 -48 -16 -16 -13 -28 5 -25 12 2 21 -10 31 -39
8 -24 19 -43 24 -43 14 0 11 11 -11 53 -34 62 -13 73 55 30 30 -19 45 -37 49
-57 3 -16 8 -27 11 -24 7 7 -30 242 -56 355 -30 127 -31 126 89 118 65 -5 94
-4 87 3 -15 15 -255 27 -255 13 0 -6 7 -11 15 -11 16 0 35 -30 35 -54 0 -11
-30 5 -96 49 -97 66 -114 73 -114 55z m90 -97 c0 -22 -16 -15 -28 12 -17 36
-15 41 8 20 11 -10 20 -24 20 -32z"/>
<path d="M5565 3249 c22 -4 60 -8 85 -7 41 0 42 1 15 8 -16 4 -55 8 -85 8 -55
0 -55 0 -15 -9z"/>
<path d="M3964 3215 c7 -35 6 -36 -21 -30 l-28 6 27 -23 27 -23 -68 -28 c-37
-15 -82 -41 -99 -58 -28 -28 -32 -29 -32 -11 0 11 8 23 17 26 11 5 13 10 6 17
-7 7 -31 0 -74 -21 -35 -16 -53 -27 -39 -23 53 15 73 10 83 -22 5 -16 11 -31
12 -32 1 -2 22 16 46 40 62 59 212 117 301 117 124 0 186 -34 231 -125 30 -60
38 -115 24 -166 -6 -25 -10 -26 -52 -21 -56 6 -61 -13 -5 -22 25 -4 43 -14 50
-26 13 -25 5 -56 -17 -64 -13 -5 -14 -4 -3 9 10 12 10 18 -1 31 -11 13 -26 15
-77 11 -71 -7 -184 -36 -178 -46 3 -4 -14 -7 -37 -7 -23 0 -62 -4 -86 -8 -33
-7 -42 -6 -37 2 11 18 -39 15 -54 -3 -16 -20 -30 -19 -30 2 0 9 -3 14 -6 11
-3 -3 0 -32 6 -65 11 -53 16 -60 58 -87 47 -31 127 -56 172 -56 l25 1 -25 14
c-14 8 -32 15 -40 15 -8 0 -35 10 -60 22 -41 19 -43 21 -22 27 39 10 20 25
-33 26 -45 0 -50 2 -53 23 -2 13 4 32 14 43 22 24 38 25 23 0 -17 -26 -4 -51
26 -51 14 0 76 13 138 29 138 36 217 48 217 32 0 -6 11 -11 25 -11 14 0 25 -5
25 -12 0 -7 -30 -41 -66 -76 -36 -35 -63 -66 -61 -69 3 -2 24 5 46 17 46 23
96 85 106 132 4 16 16 39 26 49 22 22 25 49 7 67 -6 6 -9 14 -6 18 7 7 16 -3
109 -118 39 -47 77 -89 86 -92 28 -11 45 14 41 61 -4 49 1 52 42 21 55 -40 53
2 -4 92 -19 30 -48 80 -65 111 -16 30 -38 62 -48 70 -17 13 -17 13 -1 -13 10
-14 22 -47 29 -72 6 -26 24 -63 40 -83 34 -42 32 -49 -5 -31 -35 15 -48 -2
-40 -52 l7 -35 -40 43 c-22 23 -45 42 -51 42 -6 0 -29 18 -52 41 -39 40 -40
42 -30 81 10 34 8 48 -15 107 -28 75 -80 143 -129 168 -21 11 -59 17 -116 18
l-85 2 -3 29 c-5 42 -20 53 -38 29 -14 -19 -16 -19 -25 -2 -6 9 -17 17 -26 17
-12 0 -14 -7 -9 -35z"/>
<path d="M4893 3243 c-32 -6 -29 -14 17 -56 22 -19 40 -40 40 -45 0 -6 22 -36
49 -68 28 -32 56 -70 63 -84 18 -37 39 -60 54 -60 16 0 44 62 44 97 0 37 -38
103 -65 113 -14 5 -25 18 -25 28 0 30 -43 61 -99 72 -30 5 -54 9 -55 9 0 -1
-11 -4 -23 -6z m107 -36 c28 -14 37 -41 20 -62 -10 -12 -18 -9 -53 20 -22 19
-44 35 -49 35 -4 0 -8 5 -8 10 0 14 60 12 90 -3z m115 -127 c16 -31 21 -100 7
-100 -15 0 -74 100 -68 115 9 26 44 17 61 -15z"/>
<path d="M5777 3230 c13 -5 67 -11 120 -14 54 -3 124 -8 156 -12 36 -4 57 -3
57 3 0 6 -48 13 -112 17 -62 4 -142 9 -178 11 -48 4 -59 3 -43 -5z"/>
<path d="M6175 3200 c17 -4 44 -8 60 -9 23 0 26 2 15 9 -8 5 -35 9 -60 9 -41
-1 -42 -2 -15 -9z"/>
<path d="M6368 3183 c6 -2 18 -2 25 0 6 3 1 5 -13 5 -14 0 -19 -2 -12 -5z"/>
<path d="M6975 3180 c-11 -5 -78 -9 -150 -10 -98 -1 -123 -4 -100 -11 48 -15
244 -4 263 15 18 18 16 19 -13 6z"/>
<path d="M6543 3169 c23 -5 52 -5 70 0 27 8 21 9 -38 9 -63 0 -66 -1 -32 -9z"/>
<path d="M4744 3141 c-18 -11 -34 -25 -36 -32 -3 -8 21 -39 51 -69 31 -30 66
-71 78 -90 92 -144 95 -146 130 -107 39 42 44 61 28 112 -16 56 -50 95 -81 95
-16 0 -25 9 -33 32 -26 74 -77 96 -137 59z m84 -33 c27 -30 37 -71 22 -98 -11
-21 -12 -21 -29 -3 -10 10 -34 31 -55 47 -20 15 -36 32 -36 38 0 8 54 36 71
38 3 0 15 -10 27 -22z m104 -105 c20 -24 48 -78 48 -96 0 -7 -6 -21 -13 -32
-13 -17 -17 -14 -52 39 -28 42 -36 62 -31 81 7 29 27 32 48 8z"/>
<path d="M3585 3015 c-27 -14 -39 -22 -25 -19 36 9 90 32 90 38 0 10 -14 6
-65 -19z"/>
<path d="M4670 3010 c0 -24 21 -57 92 -143 52 -63 55 -69 34 -86 -11 -9 -26 1
-76 51 -71 72 -76 61 -10 -18 53 -62 72 -71 105 -50 19 12 25 25 25 51 0 28
-10 46 -53 93 -28 31 -61 68 -72 82 -30 39 -45 45 -45 20z"/>
<path d="M1950 2990 c-6 -11 -8 -20 -6 -20 3 0 10 9 16 20 6 11 8 20 6 20 -3
0 -10 -9 -16 -20z"/>
<path d="M4126 2944 c-9 -8 -16 -20 -16 -25 0 -5 -7 -9 -15 -9 -19 0 -19 -14
0 -30 22 -18 47 -4 43 24 -1 13 3 31 11 40 17 21 -2 21 -23 0z"/>
<path d="M1906 2923 c-6 -14 -5 -15 5 -6 7 7 10 15 7 18 -3 3 -9 -2 -12 -12z"/>
<path d="M3791 2924 c0 -11 3 -14 6 -6 3 7 2 16 -1 19 -3 4 -6 -2 -5 -13z"/>
<path d="M3350 2920 c-18 -12 -2 -12 25 0 13 6 15 9 5 9 -8 0 -22 -4 -30 -9z"/>
<path d="M4032 2913 c2 -15 -4 -18 -32 -16 -29 2 -32 1 -17 -8 13 -8 17 -18
13 -35 -4 -14 -2 -24 4 -24 6 0 8 5 4 11 -4 7 0 9 12 5 32 -10 46 7 39 48 -7
35 -29 53 -23 19z"/>
<path d="M4171 2894 c0 -11 3 -14 6 -6 3 7 2 16 -1 19 -3 4 -6 -2 -5 -13z"/>
<path d="M5098 2892 c-40 -18 -51 -42 -19 -42 23 0 82 -76 74 -96 -8 -22 30
-17 55 6 28 27 28 64 0 92 -13 13 -23 29 -23 38 0 21 -42 22 -87 2z m52 -21
c0 -14 -18 -23 -30 -16 -6 4 -8 11 -5 16 8 12 35 12 35 0z m50 -61 c0 -23 -10
-26 -28 -8 -18 18 -15 28 8 28 13 0 20 -7 20 -20z"/>
<path d="M3230 2870 c-18 -12 -2 -12 25 0 13 6 15 9 5 9 -8 0 -22 -4 -30 -9z"/>
<path d="M1851 2833 c-10 -26 -10 -27 4 -9 8 11 15 23 15 28 0 15 -7 8 -19
-19z"/>
<path d="M4987 2804 l-27 -25 39 -57 c29 -41 39 -63 35 -80 -4 -15 -2 -22 7
-22 38 1 70 61 66 122 -2 35 -7 44 -24 46 -11 2 -29 12 -39 23 -22 24 -24 24
-57 -7z m31 -31 c-3 -29 8 -33 45 -18 14 6 17 2 17 -28 0 -47 -12 -52 -41 -19
-49 53 -53 61 -39 77 18 21 21 19 18 -12z"/>
<path d="M4910 2726 c0 -8 16 -33 35 -57 48 -57 43 -75 -18 -72 -26 2 -65 12
-87 23 -43 22 -50 24 -50 12 0 -19 192 -94 206 -80 3 3 7 22 9 42 2 26 -5 48
-25 80 -31 49 -70 78 -70 52z"/>
<path d="M2675 2640 c-3 -6 1 -7 9 -4 18 7 21 14 7 14 -6 0 -13 -4 -16 -10z"/>
<path d="M4166 2633 c-16 -9 -46 -15 -67 -15 -22 1 -37 -3 -34 -9 9 -13 96
-11 124 4 27 13 40 38 19 36 -7 -1 -26 -8 -42 -16z"/>
<path d="M2575 2602 c-38 -15 -79 -33 -90 -40 -41 -26 30 -1 155 55 48 22 5
12 -65 -15z"/>
<path d="M5130 2588 c-51 -27 -63 -48 -27 -48 20 0 33 -12 61 -57 20 -32 36
-70 36 -85 0 -15 4 -28 10 -28 5 0 12 -11 16 -25 9 -35 27 -32 19 4 -5 24 -1
32 24 51 41 28 41 63 1 100 -19 18 -28 34 -24 44 3 9 3 27 0 41 -5 20 -13 25
-39 25 -18 0 -53 -10 -77 -22z m58 -53 c-13 -29 -23 -32 -32 -9 -10 27 -7 34
19 34 23 0 24 -2 13 -25z m58 -69 c18 -14 18 -16 2 -32 -20 -20 -31 -13 -43
24 -8 26 11 30 41 8z"/>
<path d="M2387 2525 c-44 -15 -65 -32 -27 -20 44 14 70 24 70 30 0 6 3 7 -43
-10z"/>
<path d="M4833 2515 c-12 -8 -32 -32 -44 -52 -12 -21 -23 -39 -25 -41 -1 -2
-23 13 -49 32 -26 20 -59 39 -73 42 -15 4 -32 11 -39 16 -6 5 -24 8 -40 6 -24
-3 -14 -10 67 -50 52 -26 107 -55 122 -65 l27 -17 48 54 c47 52 59 80 38 87
-6 2 -20 -4 -32 -12z"/>
<path d="M5044 2506 c-3 -8 6 -32 19 -53 28 -44 54 -120 44 -129 -11 -11 -27
7 -58 62 -30 53 -46 70 -55 62 -10 -10 72 -141 95 -151 58 -27 69 88 15 176
-29 47 -50 59 -60 33z"/>
<path d="M2205 2450 c-3 -6 1 -7 9 -4 18 7 21 14 7 14 -6 0 -13 -4 -16 -10z"/>
<path d="M3901 2438 c0 -7 4 -22 9 -33 8 -18 9 -17 9 7 1 15 -3 30 -9 33 -5 3
-10 0 -9 -7z"/>
<path d="M4284 2415 c-7 -41 -10 -42 -41 -13 -35 33 -41 12 -6 -25 17 -17 41
-54 54 -82 16 -35 24 -45 27 -32 2 10 -2 31 -8 47 -7 18 -9 48 -5 84 8 63 -9
81 -21 21z"/>
<path d="M5452 2420 c0 -14 2 -19 5 -12 2 6 2 18 0 25 -3 6 -5 1 -5 -13z"/>
<path d="M4181 2394 c-1 -12 6 -41 14 -64 8 -23 15 -45 15 -47 0 -3 -21 14
-46 36 -48 42 -74 52 -74 27 0 -19 62 -136 72 -136 14 0 9 24 -12 55 -31 47
-24 49 28 9 72 -58 71 -58 77 -42 3 8 -12 52 -34 98 -22 48 -40 76 -40 64z"/>
<path d="M4828 2393 c-23 -6 -23 -19 0 -25 10 -3 19 -11 19 -19 0 -8 4 -42 8
-77 7 -59 6 -64 -14 -69 -11 -3 -21 -12 -21 -19 0 -24 70 -15 125 15 39 22 53
36 64 67 19 53 8 90 -32 114 -31 19 -103 25 -149 13z m140 -48 c36 -43 25 -92
-27 -119 -33 -18 -41 -13 -41 25 0 15 -4 38 -9 51 -4 13 -11 36 -15 52 -7 29
-7 29 31 23 23 -4 47 -17 61 -32z"/>
<path d="M1990 2370 c-13 -9 -13 -10 0 -9 8 0 24 4 35 9 l20 9 -20 0 c-11 0
-27 -4 -35 -9z"/>
<path d="M5293 2339 l-31 -31 35 -31 c46 -41 29 -57 -26 -23 -49 31 -61 32
-61 5 0 -14 13 -26 45 -40 31 -14 45 -26 45 -39 0 -31 -30 -24 -72 17 -21 20
-38 31 -38 24 0 -18 58 -70 86 -77 41 -11 57 2 51 40 -7 44 13 53 44 20 17
-19 20 -27 11 -36 -16 -16 -15 -25 3 -32 22 -8 105 70 105 99 0 12 -3 36 -6
53 -6 27 -9 30 -40 27 -30 -3 -34 0 -34 20 0 46 -72 48 -117 4z m84 3 c10 -6
9 -13 -3 -30 -18 -26 -31 -27 -59 -6 -20 15 -20 15 -1 30 22 16 45 18 63 6z
m68 -72 c8 -13 -14 -52 -27 -48 -7 3 -16 12 -22 21 -8 13 -7 20 4 27 19 13 37
13 45 0z"/>
<path d="M3991 2338 c-36 -16 -45 -17 -52 -6 -7 10 -9 10 -9 -2 0 -24 13 -38
40 -41 17 -3 27 -13 33 -35 11 -37 52 -92 62 -82 4 4 -6 36 -23 71 l-29 64 31
26 c26 22 28 26 11 26 -11 -1 -40 -10 -64 -21z"/>
<path d="M1841 2319 c-13 -5 -22 -12 -19 -15 3 -3 21 2 39 10 37 16 19 21 -20
5z"/>
<path d="M4080 2282 c0 -18 33 -82 42 -82 5 0 1 17 -7 38 -18 41 -35 63 -35
44z"/>
<path d="M1608 2268 c5 -5 16 -8 23 -6 8 3 3 7 -10 11 -17 4 -21 3 -13 -5z"/>
<path d="M1705 2270 l-20 -9 20 0 c11 0 27 4 35 9 13 9 13 10 0 9 -8 0 -24 -4
-35 -9z"/>
<path d="M3958 2200 c2 -16 6 -30 8 -30 2 0 4 14 4 30 0 17 -4 30 -8 30 -5 0
-7 -13 -4 -30z"/>
<path d="M4366 2184 l-19 -46 -23 29 c-32 39 -30 23 13 -89 23 -62 42 -98 51
-98 14 0 13 21 -4 64 -8 20 10 20 40 0 34 -21 43 0 11 23 -72 50 -68 43 -48
95 24 65 5 84 -21 22z"/>
<path d="M5065 2178 c-50 -27 -86 -76 -47 -63 13 3 36 -8 71 -37 42 -34 51
-47 46 -65 -13 -55 58 -3 74 54 12 43 3 80 -27 103 -27 22 -85 26 -117 8z m97
-35 c21 -19 23 -52 6 -76 -12 -16 -17 -14 -65 20 -29 21 -52 41 -52 44 -1 10
42 28 68 28 14 1 33 -6 43 -16z"/>
<path d="M4194 2124 c-17 -68 40 -150 88 -126 22 10 22 11 2 11 -11 1 -28 7
-38 14 -21 16 -36 76 -25 105 6 16 5 22 -6 22 -8 0 -18 -12 -21 -26z"/>
<path d="M3986 2084 c29 -125 43 -166 58 -176 28 -19 31 -5 11 45 -10 24 20
23 69 -4 21 -11 40 -18 43 -15 12 12 -8 35 -46 52 -28 13 -39 23 -35 34 23 56
6 80 -60 87 l-47 6 7 -29z m58 -10 c20 -8 21 -34 2 -59 -12 -17 -13 -17 -19 7
-4 15 -10 33 -13 42 -6 17 4 20 30 10z"/>
<path d="M4140 2082 c0 -15 33 -107 41 -116 14 -15 11 12 -8 71 -9 29 -20 53
-25 53 -4 0 -8 -4 -8 -8z"/>
<path d="M5521 2034 c0 -11 3 -14 6 -6 3 7 2 16 -1 19 -3 4 -6 -2 -5 -13z"/>
<path d="M5532 1980 c0 -14 2 -19 5 -12 2 6 2 18 0 25 -3 6 -5 1 -5 -13z"/>
<path d="M4061 1774 c0 -11 3 -14 6 -6 3 7 2 16 -1 19 -3 4 -6 -2 -5 -13z"/>
<path d="M5121 1701 c-8 -5 -10 -14 -5 -22 4 -7 9 -22 10 -34 1 -11 4 -27 6
-35 2 -9 -6 -16 -19 -18 -23 -3 -27 7 -24 63 2 31 -15 53 -31 37 -6 -6 -20
-12 -30 -12 -9 0 -22 -9 -29 -21 -11 -21 -11 -21 -40 7 -16 15 -29 22 -29 16
0 -7 -15 -12 -35 -12 -25 0 -43 -7 -58 -24 -22 -24 -23 -24 -46 -5 -30 24 -43
24 -67 -2 -17 -19 -17 -22 -3 -32 16 -12 34 -87 20 -87 -16 0 -61 57 -61 77 0
18 -8 23 -44 28 -25 4 -49 4 -55 0 -14 -8 -14 -85 -1 -85 6 0 10 5 10 10 0 31
20 -2 53 -88 46 -122 49 -150 8 -102 -24 30 -31 33 -44 21 -19 -15 -41 -5 -33
15 3 8 -2 18 -10 21 -9 3 -25 24 -35 47 -16 36 -16 43 -3 57 18 20 18 33 -2
49 -13 11 -16 10 -20 -8 -5 -17 -12 -20 -38 -15 -22 3 -36 0 -45 -11 -15 -18
-10 -52 7 -49 16 4 26 -41 18 -87 -3 -21 -2 -40 3 -42 4 -2 5 -34 1 -73 -4
-38 -8 -63 -9 -54 -2 30 -51 84 -77 86 -33 3 -76 31 -71 46 2 7 20 11 44 9 46
-2 68 16 58 48 -4 12 -18 26 -32 33 -21 9 -27 8 -34 -6 -6 -10 -22 -17 -38
-17 -32 0 -61 -27 -61 -56 0 -28 54 -78 75 -70 9 3 13 2 10 -4 -3 -6 -2 -10 4
-10 5 0 13 -9 16 -21 4 -11 13 -18 20 -16 18 7 35 -13 35 -40 0 -23 -26 -43
-56 -43 -14 0 -15 3 -6 12 28 28 7 78 -33 78 -30 0 -45 -19 -45 -56 0 -44 34
-84 71 -84 50 0 98 26 114 62 8 18 14 29 15 24 0 -6 5 -5 12 2 7 7 31 12 54
12 23 0 47 6 53 13 14 17 4 27 -26 27 -17 0 -23 6 -23 21 0 11 -5 30 -11 41
-15 29 8 52 25 24 31 -52 59 -76 86 -76 16 0 35 8 42 18 7 9 31 26 53 37 30
16 41 28 43 48 3 22 -1 27 -17 27 -14 0 -21 6 -21 20 0 31 17 24 42 -19 23
-40 36 -44 96 -25 18 5 14 21 -7 27 -12 3 -23 19 -30 43 -13 46 -5 57 18 25
47 -68 98 -96 130 -72 9 6 23 14 32 17 8 3 23 20 33 39 21 38 11 69 -25 80
-23 8 -54 -14 -31 -22 34 -13 -12 -69 -47 -58 -25 7 -46 42 -42 68 1 9 -3 17
-8 17 -6 0 -11 15 -11 33 0 56 41 78 62 32 14 -32 25 -32 40 0 6 13 15 22 19
19 5 -3 18 0 29 6 18 10 20 8 21 -22 1 -18 2 -40 3 -49 1 -9 6 -22 13 -30 25
-30 27 -69 4 -99 -28 -38 -27 -54 2 -45 12 4 36 7 54 6 35 -1 50 13 36 32 -5
7 -18 34 -28 61 -15 40 -15 50 -4 57 20 12 30 -3 43 -68 12 -55 14 -58 41 -56
32 2 45 17 45 52 0 13 3 22 6 18 3 -3 6 -28 6 -56 -1 -28 1 -51 4 -51 3 0 16
7 29 16 14 9 39 14 62 12 l38 -3 -3 40 c-4 47 -17 66 -26 37 -6 -17 -44 -37
-53 -28 -2 2 -7 20 -10 40 -4 29 -2 36 11 36 9 0 16 -7 16 -15 0 -21 28 -19
32 3 6 27 -18 87 -36 90 -9 2 -16 -3 -16 -12 0 -9 -6 -16 -14 -16 -10 0 -14
10 -14 30 1 26 5 30 29 30 15 0 31 -5 34 -10 5 -8 11 -7 21 1 8 6 14 7 14 2 0
-14 47 -63 61 -63 6 0 9 6 6 14 -6 15 18 30 33 21 12 -8 -1 -55 -16 -55 -8 0
-14 -8 -14 -19 0 -10 -6 -34 -14 -52 -18 -44 -15 -106 5 -100 8 2 47 7 88 10
l75 6 2 48 c3 52 -10 61 -39 27 -18 -21 -87 -29 -87 -10 0 13 37 50 50 50 5 0
7 6 4 13 -5 15 44 132 53 124 6 -7 20 -69 29 -128 3 -20 12 -61 19 -90 l14
-54 -5 50 c-7 70 -52 285 -53 257 -1 -18 -4 -21 -18 -14 -10 5 -47 6 -83 2
-61 -7 -66 -6 -90 19 l-25 26 -3 -33 -3 -33 -21 27 c-20 24 -25 26 -72 19 -69
-9 -78 -18 -58 -57 8 -18 16 -46 16 -64 1 -18 5 -36 9 -40 4 -4 7 -14 7 -22 0
-11 -3 -12 -14 -3 -11 9 -15 9 -19 -1 -8 -23 -21 1 -22 40 0 20 -6 48 -14 61
-10 19 -11 28 -1 47 7 12 10 30 7 38 -7 17 -44 21 -66 7z m49 -21 c0 -5 -2
-10 -4 -10 -3 0 -8 5 -11 10 -3 6 -1 10 4 10 6 0 11 -4 11 -10z m165 -9 c3 -5
-9 -11 -27 -13 -32 -3 -33 -5 -36 -52 l-3 -49 35 6 c20 3 36 2 36 -3 0 -5 -15
-10 -32 -12 -29 -3 -33 -6 -30 -28 l3 -25 -14 26 c-22 41 -26 137 -5 150 18
12 65 11 73 0z m95 -46 c0 -20 -10 -19 -26 3 -19 25 -17 34 6 22 11 -6 20 -17
20 -25z m-547 15 c-69 -28 -1 -221 74 -207 15 3 22 0 20 -7 -7 -21 -54 -18
-80 6 -34 30 -67 96 -67 131 0 48 28 87 60 86 9 0 6 -4 -7 -9z m74 -5 c9 -24
0 -25 -26 -4 -23 19 -23 19 -2 19 12 0 24 -7 28 -15z m588 -2 c-4 -10 -15 -39
-24 -65 -10 -26 -25 -56 -34 -65 -8 -10 -21 -31 -27 -47 l-10 -28 65 4 c42 2
65 0 65 -7 0 -6 -17 -11 -37 -11 -21 0 -50 -3 -65 -7 -35 -9 -46 19 -24 62 9
17 16 37 16 46 0 9 9 28 19 43 11 15 22 38 26 51 7 21 5 23 -24 16 -24 -5 -31
-3 -31 9 0 12 11 16 46 16 40 0 45 -2 39 -17z m-772 -28 c-1 -16 4 -56 13 -88
8 -33 13 -61 10 -64 -8 -8 -48 135 -42 146 4 5 2 12 -4 16 -17 10 -11 27 8 23
12 -3 16 -12 15 -33z m302 -5 c5 -24 12 -30 34 -30 15 0 32 5 38 11 18 18 31
2 35 -41 4 -47 -7 -54 -15 -10 -5 21 -12 30 -26 30 -31 0 -51 -11 -51 -28 0
-29 -26 19 -33 61 -7 44 8 50 18 7z m-440 8 c14 -6 25 -17 25 -23 0 -7 9 -20
20 -30 11 -10 20 -23 20 -28 0 -6 -9 -2 -20 8 -11 10 -22 16 -25 13 -6 -6 16
-70 39 -113 9 -16 16 -38 16 -47 0 -10 7 -18 15 -18 8 0 15 -4 15 -10 0 -5 -9
-10 -19 -10 -12 0 -21 10 -26 28 -3 15 -22 64 -41 108 -19 45 -33 88 -32 95 2
9 -5 13 -21 11 -20 -2 -22 0 -11 13 15 18 13 18 45 3z m185 -54 c0 -31 -4 -53
-9 -50 -12 8 -25 82 -16 96 15 24 25 6 25 -46z m-321 -69 c7 -19 23 -48 36
-64 14 -15 23 -30 20 -32 -8 -9 41 -84 55 -84 8 0 17 11 20 25 5 22 7 23 13 7
14 -38 9 -48 -25 -45 -27 2 -37 11 -56 46 -19 33 -29 42 -46 40 -22 -3 -23
-13 -14 -105 3 -27 0 -33 -17 -33 -18 0 -20 6 -18 72 1 40 2 76 3 79 0 3 11 4
25 1 32 -6 33 19 3 68 l-22 35 -7 -35 c-5 -27 -7 -29 -8 -10 -1 31 9 70 18 70
4 0 13 -16 20 -35z m528 -9 c-4 -9 -11 -16 -18 -16 -6 0 -8 7 -5 16 3 9 6 21
6 27 0 8 3 8 11 0 7 -7 9 -19 6 -27z m-277 3 c7 -11 9 -23 6 -26 -8 -9 -36 17
-36 33 0 21 18 17 30 -7z m-40 1 c0 -5 -4 -10 -10 -10 -5 0 -10 5 -10 10 0 6
5 10 10 10 6 0 10 -4 10 -10z m485 0 c3 -5 1 -10 -4 -10 -6 0 -11 5 -11 10 0
6 2 10 4 10 3 0 8 -4 11 -10z m-65 -56 c0 -6 -10 -9 -24 -7 -22 4 -23 7 -13
34 l11 29 13 -23 c7 -12 12 -27 13 -33z m174 4 c-11 -17 -24 -6 -24 19 0 26 1
26 14 8 8 -11 12 -23 10 -27z m-488 -45 c-3 -3 -12 0 -20 6 -12 10 -13 16 -3
32 11 18 12 18 21 -7 4 -14 5 -28 2 -31z m557 50 c-7 -2 -21 -2 -30 0 -10 3
-4 5 12 5 17 0 24 -2 18 -5z m-1002 -46 c-13 -13 -15 1 -4 30 7 17 8 17 11 -1
2 -10 -1 -23 -7 -29z m-56 24 c3 -5 -3 -12 -14 -16 -22 -7 -33 -39 -18 -54 7
-7 7 -11 1 -11 -16 0 -34 22 -34 41 0 10 10 25 22 33 26 18 35 20 43 7z m85
-141 c31 -44 24 -88 -20 -118 -51 -34 -82 -27 -99 25 -12 33 -12 44 -2 57 15
17 41 11 41 -11 0 -12 -3 -13 -14 -4 -21 18 -30 -17 -11 -45 16 -24 44 -26 83
-5 32 17 31 75 -3 97 -28 18 -33 34 -11 34 8 0 24 -13 36 -30z"/>
<path d="M5651 1344 c0 -11 3 -14 6 -6 3 7 2 16 -1 19 -3 4 -6 -2 -5 -13z"/>
<path d="M5666 1260 c8 -67 36 -201 41 -196 6 6 -28 209 -38 226 -6 9 -7 -3
-3 -30z"/>
<path d="M4204 1170 c3 -14 6 -33 6 -42 0 -10 5 -18 10 -18 11 0 3 45 -12 70
-7 11 -8 8 -4 -10z"/>
<path d="M5504 1166 c-66 -29 -46 -56 39 -54 40 1 62 -3 74 -15 12 -10 23 -13
33 -7 12 7 12 13 1 34 -23 42 -99 63 -147 42z"/>
<path d="M5497 1070 c-22 -16 -58 -47 -82 -69 -50 -46 -215 -128 -277 -137
-23 -4 -47 -10 -53 -14 -10 -8 -61 -17 -150 -26 -27 -3 -63 -11 -80 -19 -21
-9 -82 -14 -195 -15 -187 -3 -230 3 -230 32 0 36 -31 33 -67 -5 -24 -27 -33
-46 -33 -71 0 -37 25 -76 52 -79 9 -2 34 -18 56 -37 22 -19 58 -48 80 -64 23
-16 40 -34 39 -39 -1 -6 32 -21 73 -35 87 -28 209 -33 485 -18 130 7 164 12
180 26 11 10 52 34 90 53 115 57 215 165 215 230 0 15 7 42 16 58 19 38 11
154 -17 217 -22 51 -46 54 -102 12z m33 -120 c-7 -12 -21 -20 -37 -20 l-26 0
20 23 c11 12 27 33 34 47 l14 25 3 -27 c2 -15 -2 -36 -8 -48z m40 -20 c0 -5
-7 -15 -16 -22 -55 -44 -74 -69 -74 -95 0 -23 -7 -31 -39 -44 -28 -12 -46 -29
-61 -58 -11 -23 -25 -39 -31 -35 -6 3 -26 6 -45 6 -37 0 -84 -33 -84 -59 0 -9
-11 -11 -44 -7 -35 5 -52 2 -79 -15 -19 -12 -38 -28 -41 -37 -5 -13 -10 -13
-32 5 -34 26 -78 27 -114 1 l-28 -20 -30 30 c-38 38 -83 40 -133 6 l-36 -25
-22 30 -22 29 30 0 c41 0 76 18 92 46 l13 25 20 -25 c39 -45 113 -41 166 10
l26 24 39 -20 c22 -11 45 -20 53 -20 26 0 72 31 87 59 14 27 17 29 44 18 37
-14 91 8 117 48 13 19 25 25 54 25 40 0 100 39 100 64 0 7 17 24 38 38 41 29
52 33 52 18z m-110 -34 c0 -32 -66 -72 -101 -61 -28 9 -24 17 24 47 46 30 77
36 77 14z m84 -48 c-18 -59 -25 -71 -35 -61 -16 16 15 82 39 83 2 0 0 -10 -4
-22z m-234 -32 c0 -38 -83 -70 -120 -46 -18 11 -17 11 45 37 61 26 75 27 75 9z
m-160 -60 c0 -29 -41 -66 -74 -66 -31 0 -76 23 -76 39 0 8 96 37 133 40 9 0
17 -5 17 -13z m336 -18 c4 -7 -11 -27 -37 -49 -59 -51 -75 -51 -49 0 27 53 69
77 86 49z m-959 -14 c53 -15 54 -16 37 -35 -9 -10 -26 -19 -37 -19 -24 0 -67
37 -67 57 0 16 0 16 67 -3z m443 -3 c0 -5 -14 -21 -31 -36 -26 -21 -40 -25
-77 -23 -43 3 -76 27 -60 44 16 15 168 29 168 15z m-274 -11 c59 0 69 -13 35
-44 -25 -23 -76 -23 -101 -1 -25 22 -28 60 -4 51 9 -3 40 -6 70 -6z m-86 -59
c0 -11 -98 -34 -110 -26 -5 3 -14 14 -20 25 -9 17 -7 17 21 7 24 -10 35 -9 57
4 25 15 52 9 52 -10z m724 3 c30 -12 16 -35 -36 -59 -70 -33 -90 -16 -47 39
20 25 50 33 83 20z m-703 -63 c54 -55 36 -65 -43 -25 -48 25 -51 27 -33 40 28
20 43 17 76 -15z m560 -7 c16 -19 6 -27 -68 -51 -58 -18 -70 -15 -54 16 24 43
97 65 122 35z m-359 -11 c19 -22 29 -61 18 -68 -16 -10 -150 17 -150 30 0 19
60 55 91 55 14 0 33 -8 41 -17z m178 -23 c37 -37 21 -50 -66 -50 -64 0 -73 19
-21 50 41 25 62 25 87 0z"/>
<path d="M5720 981 c0 -24 28 -195 36 -220 3 -8 7 -12 9 -9 6 5 -33 240 -41
247 -2 2 -4 -6 -4 -18z"/>
<path d="M4262 930 c0 -14 2 -19 5 -12 2 6 2 18 0 25 -3 6 -5 1 -5 -13z"/>
<path d="M4287 810 c3 -11 7 -20 9 -20 2 0 4 9 4 20 0 11 -4 20 -9 20 -5 0 -7
-9 -4 -20z"/>
<path d="M5772 705 c0 -16 2 -22 5 -12 2 9 2 23 0 30 -3 6 -5 -1 -5 -18z"/>
<path d="M5782 645 c0 -16 2 -22 5 -12 2 9 2 23 0 30 -3 6 -5 -1 -5 -18z"/>
<path d="M4347 565 c3 -27 9 -59 14 -70 l8 -20 0 20 c0 11 -6 43 -14 70 l-14
50 6 -50z"/>
</g>
</svg>
